<svg width="20" height="20" viewBox="0 0 20 20" fill="none" xmlns="http://www.w3.org/2000/svg">
<path d="M10.6263 4.1665C10.6263 3.82133 10.3465 3.5415 10.0013 3.5415C9.65612 3.5415 9.3763 3.82133 9.3763 4.1665V9.37484H4.16797C3.82279 9.37484 3.54297 9.65466 3.54297 9.99984C3.54297 10.345 3.82279 10.6248 4.16797 10.6248H9.3763V15.8332C9.3763 16.1783 9.65612 16.4582 10.0013 16.4582C10.3465 16.4582 10.6263 16.1783 10.6263 15.8332V10.6248H15.8346C16.1798 10.6248 16.4596 10.345 16.4596 9.99984C16.4596 9.65466 16.1798 9.37484 15.8346 9.37484H10.6263V4.1665Z" fill="black"/>
</svg>
