<svg width="20" height="20" viewBox="0 0 20 20" fill="none" xmlns="http://www.w3.org/2000/svg">
<path d="M9.85449 1.66663V1.04163H9.85446L9.85449 1.66663ZM14.9268 6.73889H15.5518V6.73887L14.9268 6.73889ZM16.377 12.4039H17.002V12.4039L16.377 12.4039ZM14.0986 15.0699L14.1845 15.689L14.1845 15.689L14.0986 15.0699ZM9.85449 15.4352L9.85448 16.0602H9.85449V15.4352ZM5.61035 15.0699L5.5245 15.689L5.52451 15.689L5.61035 15.0699ZM3.33301 12.4039L2.70801 12.4039V12.4039H3.33301ZM4.78223 6.73889L4.15723 6.73887V6.73889H4.78223ZM15.9878 10.9888L15.4511 11.3091L15.9878 10.9888ZM9.85449 1.66663V2.29163C12.3107 2.29163 14.3017 4.2827 14.3018 6.73892L14.9268 6.73889L15.5518 6.73887C15.5516 3.59238 13.0011 1.04163 9.85449 1.04163V1.66663ZM14.9268 6.73889H14.3018V8.48189H14.9268H15.5518V6.73889H14.9268ZM15.9878 10.9888L15.4511 11.3091C15.642 11.629 15.7519 12.0028 15.752 12.404L16.377 12.4039L17.002 12.4039C17.0019 11.7709 16.8278 11.1767 16.5246 10.6686L15.9878 10.9888ZM16.377 12.4039H15.752C15.752 13.4423 15.0126 14.3122 14.0128 14.4509L14.0986 15.0699L14.1845 15.689C15.8309 15.4607 17.002 14.0371 17.002 12.4039H16.377ZM14.0986 15.0699L14.0128 14.4509C12.7041 14.6323 11.0977 14.8102 9.85449 14.8102V15.4352V16.0602C11.1882 16.0602 12.8655 15.8719 14.1845 15.689L14.0986 15.0699ZM9.85449 15.4352L9.8545 14.8102C8.61118 14.8102 7.00485 14.6323 5.6962 14.4509L5.61035 15.0699L5.52451 15.689C6.84347 15.8719 8.52064 16.0602 9.85448 16.0602L9.85449 15.4352ZM5.61035 15.0699L5.6962 14.4509C4.69675 14.3123 3.95801 13.4426 3.95801 12.4039H3.33301H2.70801C2.70801 14.0367 3.87781 15.4607 5.5245 15.689L5.61035 15.0699ZM3.33301 12.4039L3.95801 12.404C3.95805 12.0028 4.06781 11.6289 4.25855 11.309L3.7217 10.989L3.18486 10.6689C2.88194 11.1771 2.70808 11.7712 2.70801 12.4039L3.33301 12.4039ZM4.78223 8.48219H5.40723V6.73889H4.78223H4.15723V8.48219H4.78223ZM4.78223 6.73889L5.40723 6.73892C5.40733 4.28281 7.39841 2.29174 9.85452 2.29163L9.85449 1.66663L9.85446 1.04163C6.70805 1.04177 4.15735 3.59244 4.15723 6.73887L4.78223 6.73889ZM3.7217 10.989L4.25855 11.309C4.47071 10.9531 4.76721 10.5041 4.98727 10.0632C5.21553 9.60585 5.40723 9.07626 5.40723 8.48219H4.78223H4.15723C4.15723 8.80513 4.05344 9.13509 3.86883 9.50496C3.67602 9.89128 3.44225 10.2371 3.18486 10.6689L3.7217 10.989ZM14.9268 8.48189H14.3018C14.3018 9.07606 14.4935 9.60573 14.7219 10.0631C14.9421 10.5042 15.2387 10.953 15.4511 11.3091L15.9878 10.9888L16.5246 10.6686C16.267 10.237 16.0331 9.89097 15.8402 9.50474C15.6556 9.13488 15.5518 8.80489 15.5518 8.48189H14.9268Z" fill="white"/>
<path d="M11.666 17.3616C11.2766 17.9473 10.6106 18.3334 9.85442 18.3334C9.09828 18.3334 8.4323 17.9473 8.04283 17.3616" stroke="white" stroke-width="1.25" stroke-linecap="round"/>
</svg>
