<svg width="20" height="20" viewBox="0 0 20 20" fill="none" xmlns="http://www.w3.org/2000/svg">
<path d="M9.85352 1.6665L9.85353 1.0415H9.85352V1.6665ZM14.9258 6.73877L15.5508 6.73877L15.5508 6.73876L14.9258 6.73877ZM16.376 12.4038L17.001 12.4038L17.001 12.4038L16.376 12.4038ZM14.0986 15.0688L14.1845 15.6879L14.1845 15.6879L14.0986 15.0688ZM9.85449 15.4351L9.85449 16.0601L9.8545 16.0601L9.85449 15.4351ZM5.61035 15.0688L5.52451 15.6879L5.52451 15.6879L5.61035 15.0688ZM3.33203 12.4038L2.70703 12.4038L2.70703 12.4038L3.33203 12.4038ZM4.78125 6.73877L4.15625 6.73876V6.73877H4.78125ZM15.987 10.9888L15.4503 11.309L15.987 10.9888ZM9.85352 1.6665L9.8535 2.2915C12.3097 2.29156 14.3007 4.2826 14.3008 6.73878L14.9258 6.73877L15.5508 6.73876C15.5507 3.59224 13 1.04158 9.85353 1.0415L9.85352 1.6665ZM14.9258 6.73877H14.3008V8.48155H14.9258H15.5508V6.73877H14.9258ZM15.987 10.9888L15.4503 11.309C15.6411 11.6289 15.7509 12.0026 15.751 12.4039L16.376 12.4038L17.001 12.4038C17.0009 11.7709 16.8269 11.1767 16.5238 10.6686L15.987 10.9888ZM16.376 12.4038L15.751 12.4038C15.751 13.4421 15.0125 14.3111 14.0128 14.4498L14.0986 15.0688L14.1845 15.6879C15.8308 15.4595 17.001 14.0369 17.001 12.4038L16.376 12.4038ZM14.0986 15.0688L14.0128 14.4498C12.7038 14.6313 11.0976 14.81 9.85448 14.8101L9.85449 15.4351L9.8545 16.0601C11.1885 16.06 12.8659 15.8708 14.1845 15.6879L14.0986 15.0688ZM9.85449 15.4351L9.85449 14.8101C8.61144 14.8101 7.00526 14.6313 5.69619 14.4498L5.61035 15.0688L5.52451 15.6879C6.84313 15.8708 8.52054 16.0601 9.85449 16.0601L9.85449 15.4351ZM5.61035 15.0688L5.6962 14.4498C4.69615 14.3111 3.95703 13.4419 3.95703 12.4038L3.33203 12.4038L2.70703 12.4038C2.70703 14.0372 3.87837 15.4597 5.52451 15.6879L5.61035 15.0688ZM3.33203 12.4038L3.95703 12.4039C3.95706 12.0027 4.06687 11.6288 4.25772 11.3088L3.72092 10.9887L3.18412 10.6686C2.88108 11.1767 2.70708 11.7709 2.70703 12.4038L3.33203 12.4038ZM4.78125 8.48233H5.40625V6.73877H4.78125H4.15625V8.48233H4.78125ZM4.78125 6.73877L5.40625 6.73878C5.40631 4.28255 7.3973 2.2915 9.85352 2.2915V1.6665V1.0415C6.70692 1.0415 4.15632 3.59221 4.15625 6.73876L4.78125 6.73877ZM3.72092 10.9887L4.25772 11.3088C4.46997 10.9529 4.76637 10.504 4.98641 10.0631C5.21463 9.60582 5.40625 9.0763 5.40625 8.48233H4.78125H4.15625C4.15625 8.80523 4.0525 9.13515 3.86796 9.50493C3.67523 9.89111 3.44147 10.237 3.18412 10.6686L3.72092 10.9887ZM14.9258 8.48155H14.3008C14.3008 9.07581 14.4926 9.60553 14.721 10.063C14.9412 10.504 15.2379 10.953 15.4503 11.309L15.987 10.9888L16.5238 10.6686C16.2662 10.2368 16.0323 9.89087 15.8393 9.50452C15.6546 9.1346 15.5508 8.80458 15.5508 8.48155H14.9258Z" fill="#32302C"/>
<path d="M11.668 17.3616C11.2785 17.9473 10.6125 18.3334 9.85638 18.3334C9.10023 18.3334 8.43425 17.9473 8.04479 17.3616" stroke="#32302C" stroke-width="1.25" stroke-linecap="round"/>
</svg>
