<svg width="20" height="20" viewBox="0 0 20 20" fill="none" xmlns="http://www.w3.org/2000/svg">
<path d="M9.85352 1.66663L9.85352 1.04163L9.85349 1.04163L9.85352 1.66663ZM14.9258 6.73889L15.5508 6.73889L15.5508 6.73887L14.9258 6.73889ZM16.376 12.4039L17.001 12.4039L17.001 12.4039L16.376 12.4039ZM14.0977 15.0699L14.1835 15.689L14.1835 15.689L14.0977 15.0699ZM9.85352 15.4352L9.8535 16.0602L9.85352 16.0602L9.85352 15.4352ZM5.60938 15.0699L5.52352 15.689L5.52353 15.689L5.60938 15.0699ZM3.33203 12.4039L2.70703 12.4039L2.70703 12.4039L3.33203 12.4039ZM4.78125 6.73889L4.15625 6.73887V6.73889H4.78125ZM15.9869 10.9888L15.4501 11.3091L15.9869 10.9888ZM9.85352 1.66663V2.29163C12.3097 2.29163 14.3007 4.2827 14.3008 6.73892L14.9258 6.73889L15.5508 6.73887C15.5507 3.59238 13.0001 1.04163 9.85352 1.04163V1.66663ZM14.9258 6.73889H14.3008V8.48189H14.9258H15.5508V6.73889H14.9258ZM15.9869 10.9888L15.4501 11.3091C15.6411 11.629 15.7509 12.0028 15.751 12.404L16.376 12.4039L17.001 12.4039C17.0009 11.7709 16.8268 11.1767 16.5236 10.6686L15.9869 10.9888ZM16.376 12.4039L15.751 12.4039C15.751 13.4423 15.0116 14.3122 14.0118 14.4509L14.0977 15.0699L14.1835 15.689C15.8299 15.4607 17.001 14.0371 17.001 12.4039L16.376 12.4039ZM14.0977 15.0699L14.0118 14.4509C12.7031 14.6323 11.0967 14.8102 9.85352 14.8102L9.85352 15.4352L9.85352 16.0602C11.1872 16.0602 12.8645 15.8719 14.1835 15.689L14.0977 15.0699ZM9.85352 15.4352L9.85353 14.8102C8.6102 14.8102 7.00388 14.6323 5.69522 14.4509L5.60938 15.0699L5.52353 15.689C6.8425 15.8719 8.51966 16.0602 9.8535 16.0602L9.85352 15.4352ZM5.60938 15.0699L5.69523 14.4509C4.69578 14.3123 3.95703 13.4426 3.95703 12.4039L3.33203 12.4039L2.70703 12.4039C2.70703 14.0367 3.87683 15.4607 5.52352 15.689L5.60938 15.0699ZM3.33203 12.4039L3.95703 12.404C3.95708 12.0028 4.06683 11.6289 4.25757 11.309L3.72073 10.989L3.18388 10.6689C2.88096 11.1771 2.7071 11.7712 2.70703 12.4039L3.33203 12.4039ZM4.78125 8.48219H5.40625V6.73889H4.78125H4.15625V8.48219H4.78125ZM4.78125 6.73889L5.40625 6.73892C5.40635 4.28281 7.39743 2.29174 9.85354 2.29163L9.85352 1.66663L9.85349 1.04163C6.70707 1.04177 4.15638 3.59244 4.15625 6.73887L4.78125 6.73889ZM3.72073 10.989L4.25757 11.309C4.46974 10.9531 4.76624 10.5041 4.98629 10.0632C5.21455 9.60585 5.40625 9.07626 5.40625 8.48219H4.78125H4.15625C4.15625 8.80513 4.05247 9.13509 3.86786 9.50496C3.67504 9.89128 3.44128 10.2371 3.18388 10.6689L3.72073 10.989ZM14.9258 8.48189H14.3008C14.3008 9.07606 14.4925 9.60573 14.7209 10.0631C14.9411 10.5042 15.2377 10.953 15.4501 11.3091L15.9869 10.9888L16.5236 10.6686C16.266 10.237 16.0321 9.89097 15.8393 9.50474C15.6546 9.13488 15.5508 8.80489 15.5508 8.48189H14.9258Z" fill="white" fill-opacity="0.8"/>
<path d="M11.6641 17.3616C11.2746 17.9473 10.6086 18.3334 9.85247 18.3334C9.09632 18.3334 8.43034 17.9473 8.04088 17.3616" stroke="white" stroke-opacity="0.8" stroke-width="1.25" stroke-linecap="round"/>
<circle cx="14" cy="4" r="4" fill="#D92D20"/>
</svg>
