<svg width="20" height="20" viewBox="0 0 20 20" fill="none" xmlns="http://www.w3.org/2000/svg">
<path d="M15 16.875C15.3452 16.875 15.625 17.1548 15.625 17.5C15.625 17.8452 15.3452 18.125 15 18.125L4.16667 18.125C2.90101 18.125 1.875 17.099 1.875 15.8333L1.875 4.16667C1.875 2.90101 2.90102 1.875 4.16667 1.875L15 1.875C15.3452 1.875 15.625 2.15482 15.625 2.5C15.625 2.84518 15.3452 3.125 15 3.125L4.16667 3.125C3.59137 3.125 3.125 3.59137 3.125 4.16667L3.125 15.8333C3.125 16.4086 3.59137 16.875 4.16667 16.875L15 16.875Z" fill="#363538"/>
<path d="M18.125 17.5C18.125 17.8452 17.8452 18.125 17.5 18.125C17.1548 18.125 16.875 17.8452 16.875 17.5L16.875 2.5C16.875 2.15482 17.1548 1.875 17.5 1.875C17.8452 1.875 18.125 2.15482 18.125 2.5L18.125 17.5Z" fill="#363538"/>
</svg>
