<svg width="144" height="120" viewBox="0 0 144 120" fill="none" xmlns="http://www.w3.org/2000/svg">
<path fill-rule="evenodd" clip-rule="evenodd" d="M131.2 119H12.8C10.5433 119 8.9109 118.999 7.62705 118.894C6.35487 118.79 5.51325 118.589 4.82207 118.237C3.50493 117.566 2.43407 116.495 1.76295 115.178C1.41078 114.487 1.20961 113.645 1.10567 112.373C1.00078 111.089 1 109.457 1 107.2V30.8503C1 28.2835 1.01019 27.2085 1.30206 26.2474C1.56946 25.3668 2.00787 24.5477 2.59218 23.8368C3.22994 23.0608 4.1188 22.456 6.25454 21.0322L33.3301 2.9818C34.5573 2.16367 35.073 1.82415 35.6217 1.58463C36.1252 1.36481 36.6529 1.20505 37.1938 1.10863C37.7832 1.00357 38.4006 1 39.8755 1H104.124C105.599 1 106.217 1.00357 106.806 1.10863C107.347 1.20505 107.875 1.36481 108.378 1.58463C108.927 1.82415 109.443 2.16367 110.67 2.98181L137.745 21.0322C139.881 22.456 140.77 23.0608 141.408 23.8368C141.992 24.5477 142.431 25.3668 142.698 26.2474C142.99 27.2085 143 28.2835 143 30.8503V107.2C143 109.457 142.999 111.089 142.894 112.373C142.79 113.645 142.589 114.487 142.237 115.178C141.566 116.495 140.495 117.566 139.178 118.237C138.487 118.589 137.645 118.79 136.373 118.894C135.089 118.999 133.457 119 131.2 119ZM143.128 115.632C144 113.921 144 111.68 144 107.2V30.8503C144 28.3458 144 27.0935 143.655 25.9568C143.349 24.9505 142.848 24.0143 142.18 23.2018C141.426 22.284 140.384 21.5894 138.3 20.2001L111.225 2.14969C110.026 1.35069 109.427 0.951172 108.778 0.668152C108.203 0.416931 107.6 0.234337 106.982 0.124146C106.285 0 105.565 0 104.124 0H39.8755C38.435 0 37.7148 0 37.0183 0.124146C36.4001 0.234337 35.7971 0.416931 35.2216 0.668152C34.5733 0.951164 33.974 1.35068 32.7755 2.14967L32.7754 2.14976L5.69978 20.2001C3.61589 21.5894 2.57394 22.284 1.81963 23.2018C1.15185 24.0143 0.650815 24.9505 0.345206 25.9568C0 27.0935 0 28.3458 0 30.8503V107.2C0 111.68 0 113.921 0.871948 115.632C1.63893 117.137 2.86278 118.361 4.36808 119.128C6.07937 120 8.31958 120 12.8 120H131.2C135.68 120 137.921 120 139.632 119.128C141.137 118.361 142.361 117.137 143.128 115.632Z" fill="#181818" fill-opacity="0.06"/>
</svg>
