<svg width="20" height="20" viewBox="0 0 20 20" fill="none" xmlns="http://www.w3.org/2000/svg">
<path d="M14.7026 17.1084C14.9467 17.3525 15.3424 17.3525 15.5865 17.1084C15.8306 16.8644 15.8306 16.4686 15.5865 16.2246L11.2768 11.9149C10.2192 10.8572 10.2192 9.14242 11.2768 8.08475L15.5865 3.77511C15.8306 3.53104 15.8306 3.13531 15.5865 2.89123C15.3424 2.64715 14.9467 2.64715 14.7026 2.89123L10.3929 7.20086C8.84712 8.74669 8.84712 11.253 10.3929 12.7988L14.7026 17.1084Z" fill="white"/>
<path d="M9.70259 17.1084C9.94667 17.3525 10.3424 17.3525 10.5865 17.1084C10.8306 16.8644 10.8306 16.4686 10.5865 16.2246L6.27683 11.9149C5.21916 10.8572 5.21916 9.14242 6.27683 8.08475L10.5865 3.77511C10.8306 3.53104 10.8306 3.13531 10.5865 2.89123C10.3424 2.64715 9.94667 2.64715 9.70259 2.89123L5.39295 7.20086C3.84712 8.74669 3.84712 11.253 5.39294 12.7988L9.70259 17.1084Z" fill="white"/>
</svg>
