<svg width="20" height="20" viewBox="0 0 20 20" fill="none" xmlns="http://www.w3.org/2000/svg">
<path d="M5.30132 2.8914C5.05724 2.64732 4.66151 2.64732 4.41743 2.8914C4.17336 3.13548 4.17336 3.53121 4.41743 3.77528L8.72708 8.08494C9.78475 9.14261 9.78475 10.8574 8.72708 11.9151L4.41743 16.2247C4.17336 16.4688 4.17336 16.8645 4.41743 17.1086C4.66151 17.3527 5.05724 17.3527 5.30132 17.1086L9.61096 12.799C11.1568 11.2532 11.1568 8.74688 9.61096 7.20105L5.30132 2.8914Z" fill="white"/>
<path d="M10.3013 2.8914C10.0572 2.64732 9.66151 2.64732 9.41743 2.8914C9.17336 3.13548 9.17336 3.53121 9.41743 3.77528L13.7271 8.08494C14.7847 9.14261 14.7847 10.8574 13.7271 11.9151L9.41743 16.2247C9.17336 16.4688 9.17336 16.8645 9.41743 17.1086C9.66151 17.3527 10.0572 17.3527 10.3013 17.1086L14.611 12.799C16.1568 11.2532 16.1568 8.74688 14.611 7.20105L10.3013 2.8914Z" fill="white"/>
</svg>
