<svg width="20" height="20" viewBox="0 0 20 20" fill="none" xmlns="http://www.w3.org/2000/svg">
<path d="M10.8333 6.66668C11.1785 6.66668 11.4583 6.38685 11.4583 6.04168C11.4583 5.6965 11.1785 5.41668 10.8333 5.41668H10C9.65482 5.41668 9.375 5.6965 9.375 6.04168C9.375 6.38685 9.65482 6.66668 10 6.66668H10.8333Z" fill="#363538"/>
<path d="M12.7083 6.04168C12.7083 5.6965 12.9882 5.41668 13.3333 5.41668H14.1667C14.5118 5.41668 14.7917 5.6965 14.7917 6.04168C14.7917 6.38685 14.5118 6.66668 14.1667 6.66668H13.3333C12.9882 6.66668 12.7083 6.38685 12.7083 6.04168Z" fill="#363538"/>
<path fill-rule="evenodd" clip-rule="evenodd" d="M2.5 6.04168C2.5 4.20073 3.99238 2.70834 5.83333 2.70834H14.1667C16.0076 2.70834 17.5 4.20073 17.5 6.04168C17.5 7.88263 16.0076 9.37501 14.1667 9.37501H5.83333C3.99238 9.37501 2.5 7.88263 2.5 6.04168ZM3.75 6.04168C3.75 4.89108 4.68274 3.95834 5.83333 3.95834H14.1667C15.3173 3.95834 16.25 4.89108 16.25 6.04168C16.25 7.19227 15.3173 8.12501 14.1667 8.12501H5.83333C4.68274 8.12501 3.75 7.19227 3.75 6.04168Z" fill="#363538"/>
<path d="M11.4583 13.9583C11.4583 14.3035 11.1785 14.5833 10.8333 14.5833H10C9.65482 14.5833 9.375 14.3035 9.375 13.9583C9.375 13.6132 9.65482 13.3333 10 13.3333H10.8333C11.1785 13.3333 11.4583 13.6132 11.4583 13.9583Z" fill="#363538"/>
<path d="M13.3333 13.3333C12.9882 13.3333 12.7083 13.6132 12.7083 13.9583C12.7083 14.3035 12.9882 14.5833 13.3333 14.5833H14.1667C14.5118 14.5833 14.7917 14.3035 14.7917 13.9583C14.7917 13.6132 14.5118 13.3333 14.1667 13.3333H13.3333Z" fill="#363538"/>
<path fill-rule="evenodd" clip-rule="evenodd" d="M2.5 13.9583C2.5 12.1174 3.99238 10.625 5.83333 10.625H14.1667C16.0076 10.625 17.5 12.1174 17.5 13.9583C17.5 15.7993 16.0076 17.2917 14.1667 17.2917H5.83333C3.99238 17.2917 2.5 15.7993 2.5 13.9583ZM3.75 13.9583C3.75 12.8078 4.68274 11.875 5.83333 11.875H14.1667C15.3173 11.875 16.25 12.8078 16.25 13.9583C16.25 15.1089 15.3173 16.0417 14.1667 16.0417H5.83333C4.68274 16.0417 3.75 15.1089 3.75 13.9583Z" fill="#363538"/>
</svg>
