<svg width="70" height="70" viewBox="0 0 70 70" fill="none" xmlns="http://www.w3.org/2000/svg">
<path d="M6.9205 19.2916C6.06963 18.8003 5.6442 18.5547 5.19834 18.5437C4.82611 18.5346 4.40749 18.6678 4.10904 18.8905C3.75155 19.1572 3.56143 19.5708 3.1812 20.3982C1.13883 24.8421 0 29.7874 0 34.9987C0 54.3294 15.67 70 35 70C54.33 70 70 54.3294 70 34.9987C70 16.7706 56.0666 1.79691 38.2697 0.148044C37.3599 0.0637475 36.905 0.0215991 36.4954 0.197925C36.1533 0.345231 35.8291 0.6408 35.6509 0.967881C35.4375 1.3594 35.4375 1.8511 35.4375 2.83451V11.259C35.4375 12.2166 35.4375 12.6955 35.594 13.0402C35.7448 13.3723 35.9279 13.5853 36.2337 13.784C36.5511 13.9904 37.0909 14.0721 38.1703 14.2356C48.264 15.7641 56 24.4779 56 34.9987C56 46.5971 46.598 55.9995 35 55.9995C23.402 55.9995 14 46.5971 14 34.9987C14 32.3042 14.5074 29.7283 15.4319 27.3612C15.8294 26.3433 16.0282 25.8344 16.008 25.4566C15.9885 25.0923 15.8958 24.8281 15.6834 24.5315C15.4632 24.2239 15.0482 23.9843 14.2184 23.5051L6.9205 19.2916Z" fill="#F6F6F6"/>
<path d="M7.36311 18.5367C6.51093 18.0447 6.08484 17.7987 5.8524 17.4175C5.65831 17.0993 5.5647 16.6697 5.60875 16.2996C5.66151 15.8563 5.92586 15.4844 6.45458 14.7407C12.2043 6.65281 21.3049 1.11354 31.7316 0.147921C32.6406 0.0637381 33.0951 0.0216463 33.5046 0.197979C33.8467 0.345294 34.1709 0.640851 34.3492 0.967934C34.5625 1.35944 34.5625 1.85113 34.5625 2.83451V11.259C34.5625 12.2167 34.5625 12.6955 34.406 13.0403C34.2552 13.3724 34.072 13.5854 33.7663 13.7841C33.4488 13.9905 32.9095 14.0722 31.8308 14.2354C26.4999 15.0424 21.8266 17.8536 18.6031 21.8767C17.9215 22.7274 17.5807 23.1527 17.2434 23.3239C16.9185 23.4888 16.6429 23.5406 16.2803 23.5049C15.9039 23.468 15.4896 23.2287 14.6608 22.7502L7.36311 18.5367Z" fill="#181818"/>
<path d="M7.36311 18.5367C6.51093 18.0447 6.08484 17.7987 5.8524 17.4175C5.65831 17.0993 5.5647 16.6697 5.60875 16.2996C5.66151 15.8563 5.92586 15.4844 6.45458 14.7407C12.2043 6.65281 21.3049 1.11354 31.7316 0.147921C32.6406 0.0637381 33.0951 0.0216463 33.5046 0.197979C33.8467 0.345294 34.1709 0.640851 34.3492 0.967934C34.5625 1.35944 34.5625 1.85113 34.5625 2.83451V11.259C34.5625 12.2167 34.5625 12.6955 34.406 13.0403C34.2552 13.3724 34.072 13.5854 33.7663 13.7841C33.4488 13.9905 32.9095 14.0722 31.8308 14.2354C26.4999 15.0424 21.8266 17.8536 18.6031 21.8767C17.9215 22.7274 17.5807 23.1527 17.2434 23.3239C16.9185 23.4888 16.6429 23.5406 16.2803 23.5049C15.9039 23.468 15.4896 23.2287 14.6608 22.7502L7.36311 18.5367Z" fill="url(#paint0_linear_558_9822)"/>
<defs>
<linearGradient id="paint0_linear_558_9822" x1="35" y1="0" x2="35" y2="70" gradientUnits="userSpaceOnUse">
<stop stop-color="white" stop-opacity="0.05"/>
<stop offset="1" stop-color="white" stop-opacity="0.4"/>
</linearGradient>
</defs>
</svg>
