<svg width="20" height="20" viewBox="0 0 20 20" fill="none" xmlns="http://www.w3.org/2000/svg">
<path d="M11.2617 3.17175C12.156 2.27648 13.6061 2.27607 14.501 3.17078L16.5781 5.24695C17.4651 6.13411 17.4739 7.57002 16.5986 8.46863L8.9043 16.3641C8.31643 16.9672 7.50981 17.3075 6.66797 17.3075H4.37402C3.30813 17.3073 2.45718 16.4182 2.50195 15.3524L2.59961 13.0116C2.63256 12.2292 2.95866 11.4875 3.51172 10.9335L11.2617 3.17175ZM17.0957 15.996C17.4408 15.996 17.7207 16.2757 17.7207 16.621C17.7207 16.9663 17.4407 17.246 17.0957 17.246H11.9941C11.6492 17.2458 11.3691 16.9662 11.3691 16.621C11.3691 16.2758 11.6492 15.9961 11.9941 15.996H17.0957ZM4.39551 11.8173C4.0637 12.1497 3.86839 12.5949 3.84863 13.0643L3.75 15.4042C3.73506 15.7593 4.01887 16.0563 4.37402 16.0565H6.66797C7.1729 16.0564 7.65713 15.8528 8.00977 15.4911L13.4512 9.9071L9.87402 6.32996L4.39551 11.8173ZM13.6182 4.05554C13.2115 3.64885 12.552 3.64875 12.1455 4.05554L10.7578 5.44519L14.3232 9.0116L15.7031 7.59656C16.1012 7.18813 16.0975 6.53505 15.6943 6.13171L13.6182 4.05554Z" fill="#323232"/>
</svg>
