<svg width="20" height="20" viewBox="0 0 20 20" fill="none" xmlns="http://www.w3.org/2000/svg">
<path fill-rule="evenodd" clip-rule="evenodd" d="M16.6995 2.26674C15.8956 1.4662 14.5927 1.46669 13.7894 2.26784L7.57655 8.46528C7.07964 8.96086 6.7875 9.62428 6.75793 10.3243L6.66949 12.4182C6.62922 13.3716 7.39394 14.1665 8.35151 14.1666L10.4116 14.1667C11.168 14.1667 11.8923 13.8624 12.4204 13.3228L18.5833 7.00669C19.37 6.20285 19.3618 4.91793 18.5647 4.12422L16.6995 2.26674ZM14.5834 3.05847C14.9485 2.69432 15.5407 2.69409 15.9061 3.05798L17.7714 4.91545C18.1337 5.27623 18.1374 5.86029 17.7798 6.22567L16.5421 7.4903L13.3385 4.30006L14.5834 3.05847ZM12.5451 5.09129L8.3705 9.25592C8.07236 9.55327 7.89707 9.95132 7.87933 10.3713L7.79089 12.4652C7.77746 12.783 8.03237 13.048 8.35156 13.048L10.4117 13.0481C10.8655 13.0481 11.3001 12.8656 11.6169 12.5418L15.7583 8.29108L12.5451 5.09129Z" fill="white"/>
<path d="M17.5 10.8333V14.1667C17.5 16.4679 15.6345 18.3333 13.3333 18.3333H6.66667C4.36548 18.3333 2.5 16.4679 2.5 14.1667V7.50001C2.5 5.19882 4.36548 3.33334 6.66667 3.33334H10" stroke="white" stroke-width="1.25" stroke-linecap="round"/>
</svg>
