<svg width="12" height="15" viewBox="0 0 12 15" fill="none" xmlns="http://www.w3.org/2000/svg">
<path d="M1.06694 0.183059C0.822864 -0.0610193 0.427136 -0.0610196 0.183059 0.183058C-0.0610193 0.427135 -0.0610196 0.822864 0.183058 1.06694L4.4927 5.37659C5.55037 6.43426 5.55037 8.14909 4.4927 9.20675L0.183059 13.5164C-0.0610193 13.7605 -0.0610196 14.1562 0.183058 14.4003C0.427135 14.6444 0.822863 14.6444 1.06694 14.4003L5.37658 10.0906C6.92241 8.54481 6.92241 6.03854 5.37659 4.49271L1.06694 0.183059Z" fill="black"/>
<path d="M6.06694 0.183059C5.82286 -0.0610193 5.42714 -0.0610196 5.18306 0.183058C4.93898 0.427135 4.93898 0.822864 5.18306 1.06694L9.4927 5.37659C10.5504 6.43426 10.5504 8.14909 9.4927 9.20675L5.18306 13.5164C4.93898 13.7605 4.93898 14.1562 5.18306 14.4003C5.42714 14.6444 5.82286 14.6444 6.06694 14.4003L10.3766 10.0906C11.9224 8.54481 11.9224 6.03854 10.3766 4.49271L6.06694 0.183059Z" fill="black"/>
</svg>
