<?xml version="1.0" encoding="UTF-8"?>
<svg xmlns="http://www.w3.org/2000/svg" width="512" height="512" viewBox="0 0 512 512">
  <defs>
    <linearGradient id="folderGrad" x1="0" y1="0" x2="0" y2="1">
      <stop offset="0%" stop-opacity="1" stop-color="#4b4b4b"/>
      <stop offset="60%" stop-opacity="1" stop-color="#2b2b2b"/>
      <stop offset="100%" stop-opacity="1" stop-color="#1b1b1b"/>
    </linearGradient>
    <linearGradient id="lipGrad" x1="0" y1="0" x2="0" y2="1">
      <stop offset="0%" stop-color="#5a5a5a"/>
      <stop offset="100%" stop-color="#3a3a3a"/>
    </linearGradient>
    <linearGradient id="paperGrad" x1="0" y1="0" x2="0" y2="1">
      <stop offset="0%" stop-color="#ffffff"/>
      <stop offset="100%" stop-color="#e9e9e9"/>
    </linearGradient>
    <filter id="softShadow" x="-20%" y="-20%" width="140%" height="140%">
      <feDropShadow dx="0" dy="10" stdDeviation="12" flood-color="#000000" flood-opacity="0.25"/>
    </filter>
    <clipPath id="tabClip">
      <!-- Creates the top "notch" of the folder lip -->
      <path d="M80,136 h160 a16,16 0 0 1 16,16 v8 h176 a24,24 0 0 1 24,24 v28 H56 v-44 a28,28 0 0 1 28-28z"/>
    </clipPath>
  </defs>

  <!-- Folder body -->
  <g filter="url(#softShadow)">
    <rect x="40" y="120" width="432" height="320" rx="36" ry="36" fill="url(#folderGrad)"/>
    <!-- Folder lip (slightly lighter top band) -->
    <rect x="56" y="140" width="400" height="96" rx="20" ry="20" fill="url(#lipGrad)"/>
    <!-- Inner cut defining the pocket opening -->
    <path d="M56,232 h400 v24 a36,36 0 0 1 -36,36 H92 a36,36 0 0 1 -36-36 z" fill="#1e1e1e"/>
  </g>

  <!-- Paper sheet inside folder -->
  <g clip-path="url(#tabClip)">
    <rect x="84" y="120" width="344" height="140" rx="16" ry="16" fill="url(#paperGrad)"/>
    <!-- small horizontal line hinting at text -->
    <rect x="112" y="164" width="160" height="18" rx="9" ry="9" fill="#d9d9d9"/>
  </g>

  <!-- Pocket front gradient overlay to mimic the darker lower half -->
  <rect x="40" y="248" width="432" height="192" rx="32" ry="32" fill="url(#folderGrad)"/>
</svg>
