<svg width="20" height="21" viewBox="0 0 20 21" fill="none" xmlns="http://www.w3.org/2000/svg">
<path d="M17.3329 10.0026L17.8812 9.70269L17.3329 10.0026ZM17.3328 11.3101L17.8812 11.6099L17.3328 11.3101ZM2.66715 10.0025L3.2155 10.3023L2.66715 10.0025ZM2.66714 11.3099L2.11878 11.6098L2.11878 11.6098L2.66714 11.3099ZM16.2697 7.58047C16.0225 7.3395 15.6268 7.3445 15.3858 7.59164C15.1449 7.83878 15.1499 8.23448 15.397 8.47545L15.8333 8.02796L16.2697 7.58047ZM8.0719 14.7893C7.73754 14.7035 7.39698 14.9051 7.31125 15.2395C7.22552 15.5738 7.42707 15.9144 7.76143 16.0001L7.91667 15.3947L8.0719 14.7893ZM12.17 5.94053L12.0082 6.54424L12.17 5.94053ZM5.89387 14.5803L5.58645 15.1245L6.25396 14.0695L5.89387 14.5803ZM2.66715 10.0025L3.2155 10.3023C4.52628 7.90557 7.07325 6.28125 9.99997 6.28125V5.65625V5.03125C6.59901 5.03125 3.64039 6.9203 2.1188 9.70256L2.66715 10.0025ZM17.3328 11.3101L16.7845 11.0102C15.4737 13.4069 12.9268 15.0312 10 15.0312V15.6562V16.2812C13.401 16.2812 16.3596 14.3922 17.8812 11.6099L17.3328 11.3101ZM17.3329 10.0026L16.7845 10.3024C16.9052 10.5231 16.9052 10.7895 16.7845 11.0102L17.3328 11.3101L17.8812 11.6099C18.2063 11.0156 18.2063 10.2971 17.8812 9.70269L17.3329 10.0026ZM2.66715 10.0025L2.1188 9.70256C1.79374 10.2969 1.79373 11.0154 2.11878 11.6098L2.66714 11.3099L3.2155 11.0101C3.09483 10.7894 3.09483 10.523 3.2155 10.3023L2.66715 10.0025ZM15.8333 8.02796L15.397 8.47545C15.9456 9.01031 16.4145 9.62581 16.7845 10.3024L17.3329 10.0026L17.8812 9.70269C17.451 8.91608 16.9063 8.20128 16.2697 7.58047L15.8333 8.02796ZM10 15.6562V15.0312C9.33349 15.0312 8.68755 14.9471 8.0719 14.7893L7.91667 15.3947L7.76143 16.0001C8.47769 16.1838 9.22791 16.2812 10 16.2812V15.6562ZM9.99997 5.65625V6.28125C10.6955 6.28125 11.3686 6.37284 12.0082 6.54424L12.17 5.94053L12.3318 5.33683C11.5875 5.13741 10.8057 5.03125 9.99997 5.03125V5.65625ZM4.53255 13.6207L4.94163 13.1482C4.24607 12.5461 3.65959 11.8221 3.2155 11.0101L2.66714 11.3099L2.11878 11.6098C2.63502 12.5538 3.3162 13.3944 4.12347 14.0933L4.53255 13.6207ZM5.89387 14.5803L6.20129 14.0362C5.75151 13.7821 5.32967 13.4842 4.94163 13.1482L4.53255 13.6207L4.12347 14.0933C4.57394 14.4833 5.06383 14.8292 5.58645 15.1245L5.89387 14.5803ZM4.53255 13.6207L4.17246 14.1316L5.53378 15.0912L5.89387 14.5803L6.25396 14.0695L4.89264 13.1099L4.53255 13.6207ZM12.17 5.94053L12.0082 6.54424C12.6057 6.70434 13.1747 6.93424 13.7059 7.22474L14.0058 6.67639L14.3057 6.12804C13.6883 5.79042 13.0267 5.52305 12.3318 5.33683L12.17 5.94053Z" fill="#32302C" fill-opacity="0.6"/>
<path d="M16.2188 4.37646L3.71875 16.8765" stroke="#32302C" stroke-opacity="0.6" stroke-width="1.25" stroke-linecap="round" stroke-linejoin="round"/>
<path d="M7.5 10.6562C7.5 9.27554 8.61929 8.15625 10 8.15625" stroke="#32302C" stroke-opacity="0.6" stroke-width="1.25" stroke-linecap="round"/>
</svg>
