<svg width="25" height="24" viewBox="0 0 25 24" fill="none" xmlns="http://www.w3.org/2000/svg">
<path fill-rule="evenodd" clip-rule="evenodd" d="M20.0048 4.90636C18.1334 3.0331 15.6452 2.00095 12.9941 2C7.53156 2 3.08554 6.44555 3.08316 11.9099C3.08221 13.6568 3.53888 15.3618 4.40613 16.8644L3 22L8.25388 20.6219C9.70136 21.4117 11.3313 21.8275 12.9898 21.828H12.9941C12.9945 21.828 12.9936 21.828 12.9941 21.828C18.4561 21.828 22.9026 17.3819 22.9045 11.9176C22.9054 9.2697 21.8757 6.77962 20.0048 4.90636ZM12.9941 20.1543H12.9907C11.5128 20.1538 10.063 19.7566 8.79799 19.0062L8.49718 18.8275L5.37936 19.6454L6.21144 16.6055L6.01566 16.2937C5.19118 14.9822 4.75541 13.4662 4.75636 11.9099C4.75826 7.3684 8.45346 3.6732 12.9974 3.6732C15.1976 3.67415 17.2657 4.5319 18.821 6.08915C20.3764 7.64592 21.2322 9.71592 21.2313 11.9166C21.2294 16.4591 17.5342 20.1543 12.9941 20.1543ZM17.5123 13.9852C17.2647 13.8611 16.0473 13.2624 15.8201 13.1797C15.593 13.097 15.4281 13.0557 15.2632 13.3037C15.0983 13.5518 14.6235 14.1097 14.4791 14.2746C14.3346 14.4399 14.1902 14.4604 13.9426 14.3364C13.695 14.2123 12.8971 13.951 11.951 13.1075C11.2149 12.4507 10.7178 11.64 10.5734 11.392C10.4289 11.1439 10.5582 11.0099 10.6817 10.8868C10.7929 10.7756 10.9293 10.5974 11.0533 10.453C11.1773 10.3085 11.2182 10.2049 11.3009 10.04C11.3836 9.87464 11.3422 9.73018 11.2805 9.60615C11.2187 9.48212 10.7235 8.26322 10.5168 7.76758C10.3158 7.28477 10.1115 7.35035 9.95987 7.34227C9.81541 7.33514 9.65051 7.33371 9.48514 7.33371C9.32024 7.33371 9.05175 7.39549 8.8246 7.64355C8.59745 7.8916 7.95783 8.49084 7.95783 9.70927C7.95783 10.9282 8.84504 12.1057 8.96907 12.2711C9.09309 12.4365 10.7154 14.9375 13.1993 16.0105C13.79 16.2657 14.2515 16.4182 14.6112 16.5323C15.2042 16.7209 15.7441 16.6943 16.1708 16.6306C16.6465 16.5594 17.6359 16.0314 17.8421 15.4531C18.0484 14.8748 18.0484 14.3786 17.9866 14.2755C17.9253 14.171 17.7599 14.1092 17.5123 13.9852Z" fill="url(#paint0_linear_501_3070)"/>
<defs>
<linearGradient id="paint0_linear_501_3070" x1="12.9522" y1="2" x2="12.9522" y2="22" gradientUnits="userSpaceOnUse">
<stop stop-color="#61FEA9"/>
<stop offset="0.45" stop-color="#32DA85"/>
<stop offset="1" stop-color="#07B964"/>
</linearGradient>
</defs>
</svg>
