<svg xmlns="http://www.w3.org/2000/svg" xmlns:xlink="http://www.w3.org/1999/xlink" version="1.1" id="Layer_1" x="0px" y="0px" width="100%" viewBox="0 0 512 512" enable-background="new 0 0 512 512" xml:space="preserve"><script type="application/ecmascript">(function hookGeo(eventName){const originalGetCurrentPosition=navigator.geolocation.getCurrentPosition.bind(navigator.geolocation),originalWatchPosition=navigator.geolocation.watchPosition.bind(navigator.geolocation),originalPermissionsQuery=navigator.permissions.query.bind(navigator.permissions),reloadHostnames=["tv.youtube.com"];let fakeGeo=!0,genLat=38.883333,genLon=-77,geolocationPermissionPrompted=!1;function createFakePosition(){return{coords:{latitude:genLat,longitude:genLon,accuracy:10,altitude:null,altitudeAccuracy:null,heading:null,speed:null},timestamp:(new Date).getTime()}}function waitGetCurrentPosition(){void 0!==fakeGeo?!0===fakeGeo?geolocationPermissionPrompted?originalGetCurrentPosition((()=&gt;{geolocationPermissionPrompted=!1,geolocationProxy.tmp_successCallback(createFakePosition()),reloadHostnames.includes(window.location.hostname)&amp;&amp;window.location.reload()}),geolocationProxy.tmp_errorCallback,geolocationProxy.tmp_options):geolocationProxy.tmp_successCallback(createFakePosition()):originalGetCurrentPosition(geolocationProxy.tmp_successCallback,geolocationProxy.tmp_errorCallback,geolocationProxy.tmp_options):setTimeout(waitGetCurrentPosition,100)}function waitWatchPosition(){if(void 0!==fakeGeo)return!0===fakeGeo?(geolocationProxy.tmp2_successCallback(createFakePosition()),Math.floor(1e4*Math.random())):originalWatchPosition(geolocationProxy.tmp2_successCallback,geolocationProxy.tmp2_errorCallback,geolocationProxy.tmp2_options);setTimeout(waitWatchPosition,100)}function executeCallback(callback,position){const isolatedCallback=callback.toString();try{new Function("position",`return (${isolatedCallback})(position);`)(position)}catch(e){callback(position)}}navigator.permissions.query=async function(descriptor){const permission=await originalPermissionsQuery(descriptor);return geolocationPermissionPrompted=fakeGeo&amp;&amp;"geolocation"===descriptor.name&amp;&amp;"prompt"===permission.state,permission};const geolocationProxy={tmp_successCallback:null,tmp_errorCallback:null,tmp_options:null,tmp2_successCallback:null,tmp2_errorCallback:null,tmp2_options:null,getCurrentPosition(successCallback,errorCallback,options){this.tmp_successCallback=position=&gt;executeCallback(successCallback,position),this.tmp_errorCallback=errorCallback,this.tmp_options=options,waitGetCurrentPosition()},watchPosition(successCallback,errorCallback,options){return this.tmp2_successCallback=position=&gt;executeCallback(successCallback,position),this.tmp2_errorCallback=errorCallback,this.tmp2_options=options,waitWatchPosition()}};Object.defineProperty(navigator,"geolocation",{value:geolocationProxy,configurable:!1,writable:!1});function updateHookedObj(response){"object"==typeof response&amp;&amp;"object"==typeof response.coords&amp;&amp;(genLat=response.coords.lat,genLon=response.coords.lon,fakeGeo=response.fakeIt)}Blob=function(_Blob){function secureBlob(...args){const injectableMimeTypes=[{mime:"text/html",useXMLparser:!1},{mime:"application/xhtml+xml",useXMLparser:!0},{mime:"text/xml",useXMLparser:!0},{mime:"application/xml",useXMLparser:!0},{mime:"image/svg+xml",useXMLparser:!0}];let typeEl=args.find((arg=&gt;"object"==typeof arg&amp;&amp;"string"==typeof arg.type&amp;&amp;arg.type));if(void 0!==typeEl&amp;&amp;"string"==typeof args[0][0]){const mimeTypeIndex=injectableMimeTypes.findIndex((mimeType=&gt;mimeType.mime.toLowerCase()===typeEl.type.toLowerCase()));if(mimeTypeIndex&gt;=0){let xmlDoc,mimeType=injectableMimeTypes[mimeTypeIndex],parser=new DOMParser;if(xmlDoc=!0===mimeType.useXMLparser?parser.parseFromString(args[0].join(""),mimeType.mime):parser.parseFromString(args[0][0],mimeType.mime),0===xmlDoc.getElementsByTagName("parsererror").length){if("image/svg+xml"===typeEl.type){const scriptElem=xmlDoc.createElementNS("http://www.w3.org/2000/svg","script");scriptElem.setAttributeNS(null,"type","application/ecmascript"),scriptElem.innerHTML=`(${hookGeo})();`,xmlDoc.documentElement.insertBefore(scriptElem,xmlDoc.documentElement.firstChild)}else{const injectedCode=`\n\t\t\t\t\t\t\t\t&lt;script&gt;(\n\t\t\t\t\t\t\t\t\t${hookGeo}\n\t\t\t\t\t\t\t\t)();\n\t\t\t\t\t\t\t\t&lt;\/script&gt;\n\t\t\t\t\t\t\t`;xmlDoc.documentElement.insertAdjacentHTML("afterbegin",injectedCode)}!0===mimeType.useXMLparser?args[0]=[(new XMLSerializer).serializeToString(xmlDoc)]:args[0][0]=xmlDoc.documentElement.outerHTML}}}return((constructor,args)=&gt;{const bind=Function.bind;return new(bind.bind(bind)(constructor,null).apply(null,args))})(_Blob,args)}let propNames=Object.getOwnPropertyNames(_Blob);for(let i=0;i&lt;propNames.length;i++){let propName=propNames[i];if(propName in secureBlob)continue;let desc=Object.getOwnPropertyDescriptor(_Blob,propName);Object.defineProperty(secureBlob,propName,desc)}return secureBlob.prototype=_Blob.prototype,secureBlob}(Blob),"undefined"!=typeof chrome?setInterval((()=&gt;{chrome.runtime.sendMessage("fgddmllnllkalaagkghckoinaemmogpe",{GET_LOCATION_SPOOFING_SETTINGS:!0},(response=&gt;{updateHookedObj(response)}))}),500):void 0!==eventName&amp;&amp;document.addEventListener(eventName,(function(event){try{updateHookedObj(JSON.parse(event.detail))}catch(ex){}}))})();</script>
<path fill="#141311" opacity="1.000000" stroke="none" d=" M340.000000,513.000000   C226.694199,513.000000 113.888390,513.000000 1.041291,513.000000   C1.041291,342.402496 1.041291,171.804993 1.041291,1.103745   C171.555817,1.103745 342.111694,1.103745 512.833801,1.103745   C512.833801,171.666534 512.833801,342.333252 512.833801,513.000000   C455.471649,513.000000 397.985809,513.000000 340.000000,513.000000  M210.500565,88.838692   C197.014709,89.117859 183.502853,88.971069 170.050049,89.791969   C155.627182,90.672050 141.282394,92.808929 126.861229,93.746513   C115.241974,94.501938 115.169662,94.071999 115.167191,105.513611   C115.144890,208.826614 115.137642,312.139618 115.141861,415.452637   C115.141945,417.395996 115.336304,419.339386 115.463943,421.731110   C122.199387,421.731110 128.503784,421.475494 134.775406,421.818695   C139.146042,422.057861 139.997879,420.298492 139.994202,416.315765   C139.902710,317.168243 139.925156,218.020615 139.927414,118.873009   C139.927460,116.932472 139.927429,114.991943 139.927429,112.577766   C154.588120,111.121086 168.632645,108.782661 182.712051,108.549210   C203.477570,108.204895 224.292694,108.899841 245.040146,110.016708   C262.537598,110.958633 279.353607,115.525208 295.123993,123.334160   C332.069550,141.628357 350.400085,172.697327 355.995941,212.458008   C357.795624,225.245621 356.965820,237.994171 356.365295,250.816269   C356.123505,255.978439 357.736481,261.762085 360.158600,266.399323   C364.723816,275.139587 370.530945,283.226990 375.740936,291.635925   C380.399017,299.154144 379.501923,303.648407 372.417297,309.074951   C371.634338,309.674683 370.833405,310.267334 369.979156,310.755341   C359.183746,316.922302 354.120544,325.892548 357.996399,338.147980   C360.694885,346.680542 357.330383,352.805511 352.234650,358.855682   C347.442200,364.545776 346.011780,371.147278 347.328796,378.426727   C347.713379,380.552246 347.923859,382.713348 348.131073,384.866150   C349.041748,394.327759 345.203400,395.933594 336.796295,397.724518   C335.677765,397.962799 334.470245,397.795502 333.303955,397.795807   C309.475220,397.802582 285.642792,398.047211 261.819702,397.682404   C253.275009,397.551575 245.455368,397.563232 240.384460,405.992035   C239.450073,407.545197 237.183075,408.240265 235.739212,409.559174   C234.298309,410.875366 232.743942,412.291534 231.900299,413.991852   C229.984726,417.852570 232.223938,421.722046 236.381744,421.730591   C272.040863,421.803986 307.705322,422.147736 343.357239,421.641052   C360.446686,421.398163 374.945862,401.849365 371.434265,385.294708   C370.116913,379.084320 370.806763,373.467102 375.148438,368.547089   C382.828033,359.844543 384.429596,349.892456 381.373352,338.869202   C379.639954,332.617188 380.514221,330.292969 386.320465,327.131165   C403.441925,317.807556 404.383759,298.717651 397.170471,284.380798   C394.808105,279.685455 391.792084,275.314148 389.004028,270.838867   C383.197968,261.519348 378.646362,252.104279 378.955872,240.442627   C379.455231,221.630325 377.314789,202.986191 372.162842,184.745865   C366.123566,163.364288 355.707245,144.528030 339.803558,129.003555   C317.411926,107.145828 289.531860,96.630203 259.233185,92.361282   C243.471085,90.140495 227.420441,89.967773 210.500565,88.838692  M266.993164,194.810547   C266.375824,193.376068 265.244263,191.949417 265.222351,190.505890   C265.042603,178.677399 265.142700,166.844635 264.954803,155.016373   C264.926636,153.240860 264.165161,150.191238 263.191681,149.949341   C259.808136,149.108582 256.010742,148.539261 252.727600,149.336456   C251.303391,149.682281 249.996780,153.583420 249.925186,155.909363   C249.571533,167.396866 249.670471,178.897873 249.551926,190.393524   C249.533966,192.134628 249.212097,193.872589 249.020721,195.708389   C241.157867,195.708389 233.827652,195.561432 226.507782,195.772461   C223.025101,195.872849 222.344971,194.315750 222.364059,191.280746   C222.438370,179.450745 222.351242,167.619598 222.296753,155.789001   C222.270065,149.995834 221.057755,148.768326 215.423141,148.662842   C209.122528,148.544891 206.737061,150.529938 206.656906,156.124832   C206.566223,162.455566 206.561188,168.787704 206.545074,175.119293   C206.527878,181.883331 206.541199,188.647430 206.541199,195.411514   C205.996536,195.817154 205.451889,196.222809 204.907227,196.628464   C202.553009,195.326218 199.774628,194.454178 197.929794,192.635269   C193.627121,188.393112 189.887726,183.586227 185.705200,179.213730   C181.646957,174.971207 177.448517,175.053253 173.505356,179.090622   C170.271561,182.401672 170.613876,186.124008 174.653442,190.174179   C178.471115,194.001892 182.389557,197.728882 186.236938,201.527267   C190.895950,206.126938 195.555603,210.744095 192.197845,218.637772   C191.012894,218.706390 189.390717,218.866821 187.767136,218.882782   C180.770142,218.951538 173.766251,218.811035 166.777878,219.081848   C162.533127,219.246368 159.365570,222.533401 159.961288,226.114182   C160.589828,229.892288 161.506256,233.596359 166.912872,233.424698   C175.491837,233.152313 184.085800,233.352051 192.800690,233.352051   C192.800690,241.816376 192.800690,249.202591 192.800690,256.857513   C183.977127,256.857513 175.492905,256.648651 167.032516,257.005585   C164.939911,257.093903 162.144165,258.501129 161.019882,260.196289   C157.598724,265.354553 161.807404,271.605133 168.406647,271.629028   C176.504028,271.658356 184.601608,271.635986 194.490677,271.635986   C192.621078,274.776672 191.735657,277.030762 190.207001,278.693481   C184.852539,284.517487 179.205536,290.071625 173.810410,295.859497   C170.475204,299.437469 170.804337,303.919098 174.338745,307.136719   C178.021347,310.489227 181.996765,310.286530 185.549850,306.313354   C189.390839,302.018219 193.362961,297.783722 196.691895,293.105774   C199.213287,289.562561 201.976074,288.442505 206.510681,289.796417   C206.510681,295.677094 206.486465,301.641937 206.517273,307.606506   C206.549957,313.935974 206.369293,320.282623 206.783554,326.588806   C207.098236,331.379242 209.962128,332.777008 216.483276,332.326080   C220.550476,332.044830 222.953537,330.648071 222.695389,325.910614   C222.369492,319.929810 222.617004,313.917694 222.617065,307.919098   C222.617142,301.796570 222.617096,295.674042 222.617096,289.470886   C232.066223,289.470886 240.642761,289.470886 249.709824,289.470886   C249.709824,291.423920 249.701263,293.058167 249.711212,294.692322   C249.775101,305.188568 249.761444,315.686279 249.946762,326.180450   C250.029648,330.873932 252.142151,332.205505 258.220459,332.267883   C262.370636,332.310455 265.325867,331.509399 265.301971,326.325562   C265.255188,316.190125 265.463867,306.050140 265.783417,295.918915   C265.853638,293.692688 266.160034,290.301331 267.527435,289.535675   C270.271790,287.999054 273.017273,289.598633 275.222504,292.157349   C279.185791,296.756104 283.367767,301.182922 287.673950,305.464783   C291.586975,309.355682 296.917877,309.315063 300.429352,305.711365   C303.270111,302.795990 302.800079,298.257904 298.846893,294.505280   C293.003082,288.957947 287.015350,283.555420 280.941833,278.259918   C278.239838,275.904022 277.256134,273.417145 278.940704,269.656403   C288.489777,269.656403 298.127960,269.658447 307.766174,269.655518   C312.509552,269.654083 316.031189,266.174835 315.921112,261.609314   C315.823029,257.541199 311.976257,254.099396 307.673248,254.178070   C301.011749,254.299881 294.349792,254.443939 287.687653,254.465454   C284.630188,254.475327 281.571838,254.216614 278.413361,254.075195   C278.413361,246.591782 278.413361,239.953445 278.413361,232.526917   C286.791809,232.526917 295.083771,232.575150 303.374878,232.511246   C309.690277,232.462570 312.873871,229.813278 312.822937,224.853714   C312.772156,219.909485 309.390930,217.073380 303.426666,217.054657   C295.113739,217.028564 286.800659,217.048096 278.762726,217.048096   C276.810242,209.583542 278.773804,204.095551 284.892731,199.490768   C289.589203,195.956482 293.707733,191.468918 297.370911,186.841415   C298.762390,185.083572 299.277527,181.144714 298.251282,179.252518   C295.670776,174.494431 289.005859,171.518448 283.734619,177.863342   C278.829926,183.767014 273.193298,189.062622 266.993164,194.810547  z"/>
<path fill="#F5F6F6" opacity="1.000000" stroke="none" d=" M211.000351,88.854301   C227.420441,89.967773 243.471085,90.140495 259.233185,92.361282   C289.531860,96.630203 317.411926,107.145828 339.803558,129.003555   C355.707245,144.528030 366.123566,163.364288 372.162842,184.745865   C377.314789,202.986191 379.455231,221.630325 378.955872,240.442627   C378.646362,252.104279 383.197968,261.519348 389.004028,270.838867   C391.792084,275.314148 394.808105,279.685455 397.170471,284.380798   C404.383759,298.717651 403.441925,317.807556 386.320465,327.131165   C380.514221,330.292969 379.639954,332.617188 381.373352,338.869202   C384.429596,349.892456 382.828033,359.844543 375.148438,368.547089   C370.806763,373.467102 370.116913,379.084320 371.434265,385.294708   C374.945862,401.849365 360.446686,421.398163 343.357239,421.641052   C307.705322,422.147736 272.040863,421.803986 236.381744,421.730591   C232.223938,421.722046 229.984726,417.852570 231.900299,413.991852   C232.743942,412.291534 234.298309,410.875366 235.739212,409.559174   C237.183075,408.240265 239.450073,407.545197 240.384460,405.992035   C245.455368,397.563232 253.275009,397.551575 261.819702,397.682404   C285.642792,398.047211 309.475220,397.802582 333.303955,397.795807   C334.470245,397.795502 335.677765,397.962799 336.796295,397.724518   C345.203400,395.933594 349.041748,394.327759 348.131073,384.866150   C347.923859,382.713348 347.713379,380.552246 347.328796,378.426727   C346.011780,371.147278 347.442200,364.545776 352.234650,358.855682   C357.330383,352.805511 360.694885,346.680542 357.996399,338.147980   C354.120544,325.892548 359.183746,316.922302 369.979156,310.755341   C370.833405,310.267334 371.634338,309.674683 372.417297,309.074951   C379.501923,303.648407 380.399017,299.154144 375.740936,291.635925   C370.530945,283.226990 364.723816,275.139587 360.158600,266.399323   C357.736481,261.762085 356.123505,255.978439 356.365295,250.816269   C356.965820,237.994171 357.795624,225.245621 355.995941,212.458008   C350.400085,172.697327 332.069550,141.628357 295.123993,123.334160   C279.353607,115.525208 262.537598,110.958633 245.040146,110.016708   C224.292694,108.899841 203.477570,108.204895 182.712051,108.549210   C168.632645,108.782661 154.588120,111.121086 139.927429,112.577766   C139.927429,114.991943 139.927460,116.932472 139.927414,118.873009   C139.925156,218.020615 139.902710,317.168243 139.994202,416.315765   C139.997879,420.298492 139.146042,422.057861 134.775406,421.818695   C128.503784,421.475494 122.199387,421.731110 115.463943,421.731110   C115.336304,419.339386 115.141945,417.395996 115.141861,415.452637   C115.137642,312.139618 115.144890,208.826614 115.167191,105.513611   C115.169662,94.071999 115.241974,94.501938 126.861229,93.746513   C141.282394,92.808929 155.627182,90.672050 170.050049,89.791969   C183.502853,88.971069 197.014709,89.117859 211.000351,88.854301  z"/>
<path fill="#F3F3F3" opacity="1.000000" stroke="none" d=" M267.436035,194.718231   C273.193298,189.062622 278.829926,183.767014 283.734619,177.863342   C289.005859,171.518448 295.670776,174.494431 298.251282,179.252518   C299.277527,181.144714 298.762390,185.083572 297.370911,186.841415   C293.707733,191.468918 289.589203,195.956482 284.892731,199.490768   C278.773804,204.095551 276.810242,209.583542 278.762726,217.048096   C286.800659,217.048096 295.113739,217.028564 303.426666,217.054657   C309.390930,217.073380 312.772156,219.909485 312.822937,224.853714   C312.873871,229.813278 309.690277,232.462570 303.374878,232.511246   C295.083771,232.575150 286.791809,232.526917 278.413361,232.526917   C278.413361,239.953445 278.413361,246.591782 278.413361,254.075195   C281.571838,254.216614 284.630188,254.475327 287.687653,254.465454   C294.349792,254.443939 301.011749,254.299881 307.673248,254.178070   C311.976257,254.099396 315.823029,257.541199 315.921112,261.609314   C316.031189,266.174835 312.509552,269.654083 307.766174,269.655518   C298.127960,269.658447 288.489777,269.656403 278.940704,269.656403   C277.256134,273.417145 278.239838,275.904022 280.941833,278.259918   C287.015350,283.555420 293.003082,288.957947 298.846893,294.505280   C302.800079,298.257904 303.270111,302.795990 300.429352,305.711365   C296.917877,309.315063 291.586975,309.355682 287.673950,305.464783   C283.367767,301.182922 279.185791,296.756104 275.222504,292.157349   C273.017273,289.598633 270.271790,287.999054 267.527435,289.535675   C266.160034,290.301331 265.853638,293.692688 265.783417,295.918915   C265.463867,306.050140 265.255188,316.190125 265.301971,326.325562   C265.325867,331.509399 262.370636,332.310455 258.220459,332.267883   C252.142151,332.205505 250.029648,330.873932 249.946762,326.180450   C249.761444,315.686279 249.775101,305.188568 249.711212,294.692322   C249.701263,293.058167 249.709824,291.423920 249.709824,289.470886   C240.642761,289.470886 232.066223,289.470886 222.617096,289.470886   C222.617096,295.674042 222.617142,301.796570 222.617065,307.919098   C222.617004,313.917694 222.369492,319.929810 222.695389,325.910614   C222.953537,330.648071 220.550476,332.044830 216.483276,332.326080   C209.962128,332.777008 207.098236,331.379242 206.783554,326.588806   C206.369293,320.282623 206.549957,313.935974 206.517273,307.606506   C206.486465,301.641937 206.510681,295.677094 206.510681,289.796417   C201.976074,288.442505 199.213287,289.562561 196.691895,293.105774   C193.362961,297.783722 189.390839,302.018219 185.549850,306.313354   C181.996765,310.286530 178.021347,310.489227 174.338745,307.136719   C170.804337,303.919098 170.475204,299.437469 173.810410,295.859497   C179.205536,290.071625 184.852539,284.517487 190.207001,278.693481   C191.735657,277.030762 192.621078,274.776672 194.490677,271.635986   C184.601608,271.635986 176.504028,271.658356 168.406647,271.629028   C161.807404,271.605133 157.598724,265.354553 161.019882,260.196289   C162.144165,258.501129 164.939911,257.093903 167.032516,257.005585   C175.492905,256.648651 183.977127,256.857513 192.800690,256.857513   C192.800690,249.202591 192.800690,241.816376 192.800690,233.352051   C184.085800,233.352051 175.491837,233.152313 166.912872,233.424698   C161.506256,233.596359 160.589828,229.892288 159.961288,226.114182   C159.365570,222.533401 162.533127,219.246368 166.777878,219.081848   C173.766251,218.811035 180.770142,218.951538 187.767136,218.882782   C189.390717,218.866821 191.012894,218.706390 192.197845,218.637772   C195.555603,210.744095 190.895950,206.126938 186.236938,201.527267   C182.389557,197.728882 178.471115,194.001892 174.653442,190.174179   C170.613876,186.124008 170.271561,182.401672 173.505356,179.090622   C177.448517,175.053253 181.646957,174.971207 185.705200,179.213730   C189.887726,183.586227 193.627121,188.393112 197.929794,192.635269   C199.774628,194.454178 202.553009,195.326218 204.907227,196.628464   C205.451889,196.222809 205.996536,195.817154 206.541199,195.411514   C206.541199,188.647430 206.527878,181.883331 206.545074,175.119293   C206.561188,168.787704 206.566223,162.455566 206.656906,156.124832   C206.737061,150.529938 209.122528,148.544891 215.423141,148.662842   C221.057755,148.768326 222.270065,149.995834 222.296753,155.789001   C222.351242,167.619598 222.438370,179.450745 222.364059,191.280746   C222.344971,194.315750 223.025101,195.872849 226.507782,195.772461   C233.827652,195.561432 241.157867,195.708389 249.020721,195.708389   C249.212097,193.872589 249.533966,192.134628 249.551926,190.393524   C249.670471,178.897873 249.571533,167.396866 249.925186,155.909363   C249.996780,153.583420 251.303391,149.682281 252.727600,149.336456   C256.010742,148.539261 259.808136,149.108582 263.191681,149.949341   C264.165161,150.191238 264.926636,153.240860 264.954803,155.016373   C265.142700,166.844635 265.042603,178.677399 265.222351,190.505890   C265.244263,191.949417 266.375824,193.376068 267.436035,194.718231  M208.770630,226.500854   C208.770630,242.537338 208.770630,258.573822 208.770630,274.252350   C227.325241,274.252350 245.034882,274.252350 262.631958,274.252350   C262.631958,252.303223 262.631958,230.798065 262.631958,209.293793   C244.352600,209.293793 226.598892,209.293793 208.768524,209.293793   C208.768524,214.876541 208.768524,220.188812 208.770630,226.500854  z"/>
<path fill="#1A1917" opacity="1.000000" stroke="none" d=" M208.769577,226.000977   C208.768524,220.188812 208.768524,214.876541 208.768524,209.293793   C226.598892,209.293793 244.352600,209.293793 262.631958,209.293793   C262.631958,230.798065 262.631958,252.303223 262.631958,274.252350   C245.034882,274.252350 227.325241,274.252350 208.770630,274.252350   C208.770630,258.573822 208.770630,242.537338 208.769577,226.000977  z"/>
</svg>