<svg xmlns="http://www.w3.org/2000/svg" version="1.1" id="Layer_1" x="0px" y="0px" width="100%" viewBox="0 0 720 720" enable-background="new 0 0 720 720" xml:space="preserve">
<path fill="#FFFFFF" opacity="1.000000" stroke="none" d=" M385.791931,549.436890   C400.216461,549.259216 414.209991,549.117432 428.203827,549.061584   C444.536377,548.996460 460.869385,549.041077 477.201874,548.969727   C486.388733,548.929565 491.351074,544.761719 490.670319,535.588684   C489.312103,517.286560 492.570068,500.648956 503.916351,485.772217   C508.048401,480.354462 508.922546,473.637207 508.733765,466.747345   C508.216339,447.862915 515.623718,433.284332 532.276062,423.540070   C542.102478,417.790009 543.970642,407.619324 537.255493,398.307281   C533.068909,392.501617 528.543640,386.927124 523.963379,381.421143   C514.571472,370.131165 509.989868,357.549286 509.531647,342.546875   C508.714691,315.798584 507.465759,288.968048 500.159363,262.908691   C483.985840,205.223129 446.803955,170.492599 387.524017,160.360443   C362.320801,156.052704 336.839203,155.837479 311.306305,156.909439   C283.644836,158.070770 256.220856,161.153152 228.898682,165.458008   C224.356995,166.173599 223.070541,168.296875 223.074615,172.804565   C223.194550,305.299591 223.181458,437.794739 223.185944,570.289856   C223.186340,581.700317 223.953903,580.365723 213.415878,580.305237   C201.529434,580.237000 202.824890,581.896912 202.823059,569.611145   C202.802368,430.449554 202.810577,291.287964 202.811447,152.126389   C202.811493,143.012634 202.765411,142.778030 211.537750,140.999405   C235.360016,136.169312 259.396759,132.818970 283.616272,130.638397   C303.562012,128.842606 323.535706,128.363678 343.523346,128.773087   C376.407715,129.446655 408.632416,133.801880 438.757751,148.078476   C470.902771,163.312225 494.997498,186.950745 511.128693,218.621506   C524.178650,244.242859 530.105408,271.718750 532.434143,300.216400   C533.749878,316.317963 533.727417,332.473480 535.142822,348.558197   C535.428894,351.809601 536.484985,354.693451 538.127930,357.455841   C543.424011,366.360596 549.744446,374.528717 556.101318,382.677155   C568.296814,398.309631 569.427063,416.638153 559.041748,431.288940   C554.922424,437.100159 549.454651,441.480743 543.270386,444.897552   C536.390442,448.698730 533.163940,454.804871 533.436096,462.207764   C534.062866,479.262512 529.288330,494.379303 518.968994,507.884949   C516.259033,511.431702 515.247742,515.554077 515.289185,520.079285   C515.363892,528.237183 516.027649,536.532959 514.833008,544.530273   C512.133728,562.599487 496.464813,574.974915 477.084778,575.065002   C449.253082,575.194397 421.419800,575.180969 393.588593,575.006714   C389.033447,574.978210 385.214905,575.965576 381.452393,578.518860   C372.947754,584.290161 364.048981,583.559753 354.623199,579.736267   C356.947418,575.018555 360.477203,571.905823 363.277618,568.265747   C366.426697,564.172607 369.696350,560.171265 372.952667,556.161804   C376.152222,552.222168 380.286652,549.977173 385.791931,549.436890  z"/>
<path fill="#FFFFFF" opacity="1.000000" stroke="none" d=" M413.344910,260.385010   C418.697998,252.713333 423.686310,245.219574 429.028809,237.987503   C433.014069,232.592712 439.124573,232.404083 443.661713,237.107224   C446.951324,240.517166 447.199921,244.119354 443.977509,248.883484   C435.298004,261.715515 426.802307,274.693420 417.565216,287.116455   C413.747253,292.251312 413.677948,297.282776 414.270752,302.923096   C414.583740,305.900879 416.677490,305.647522 418.664490,305.659393   C425.995941,305.703247 433.328003,305.672638 440.659149,305.742493   C448.004517,305.812469 451.432404,308.860718 451.432587,315.191620   C451.432770,321.448608 447.820435,324.928986 440.853973,325.084930   C433.525024,325.248962 426.189606,325.335876 418.861084,325.213074   C415.410706,325.155243 414.119232,326.400299 414.216858,329.878845   C414.408386,336.705353 414.389709,343.543304 414.235565,350.371552   C414.161987,353.633026 415.432037,354.804474 418.636841,354.749451   C426.299469,354.617828 433.966248,354.660919 441.630615,354.723053   C448.787506,354.781128 452.765839,358.383453 452.825531,364.701935   C452.881470,370.617767 448.865173,374.147369 441.846130,374.211731   C434.181732,374.282013 426.514252,374.368683 418.852509,374.220490   C415.386414,374.153442 414.109528,375.450775 414.215881,378.905548   C414.384644,384.386841 414.670258,389.927795 412.838867,395.247559   C411.966766,397.780792 413.736145,399.346863 414.877960,401.086365   C423.837311,414.735352 432.849640,428.349487 441.847351,441.973267   C445.960510,448.201172 445.630280,453.176208 440.885345,456.387634   C435.403473,460.097900 429.920227,458.473358 425.815857,452.114166   C416.782074,438.117462 407.617676,424.204742 398.639374,410.172760   C396.998840,407.608856 395.165833,406.676758 392.108734,406.800049   C385.488892,407.066986 378.850830,406.882294 371.496613,406.882294   C371.496613,414.386536 371.501678,421.472473 371.495453,428.558411   C371.485046,440.386322 371.480408,452.214233 371.447784,464.042114   C371.429504,470.665527 367.644623,475.065613 361.961121,475.144745   C356.286652,475.223724 352.604767,470.889954 352.584534,464.016541   C352.535004,447.197418 352.528870,430.378174 352.472931,413.559082   C352.453796,407.805084 351.603241,406.987366 345.799011,406.927277   C342.300140,406.891022 338.722809,407.384552 335.317047,406.819061   C327.217926,405.474335 321.752411,408.577545 316.772614,414.935150   C308.358887,425.676849 299.105530,435.758636 290.275818,446.177704   C285.481995,451.834412 280.872803,452.821960 276.186462,448.971283   C271.582794,445.188568 271.268524,439.297577 275.753204,433.942383   C284.629791,423.342804 293.567169,412.789429 302.711212,402.421387   C305.576202,399.172882 307.240082,396.136108 305.727264,391.735138   C304.697327,388.738922 304.506439,385.473938 304.904388,382.332611   C305.568024,377.093567 303.206085,375.685455 298.334534,375.865387   C290.848328,376.141937 283.329742,376.132507 275.847839,375.770447   C268.295807,375.404938 263.996002,368.901093 266.489868,362.177582   C268.142822,357.721222 271.582031,355.764832 276.189331,355.741028   C284.187286,355.699677 292.187897,355.612366 300.182709,355.774872   C303.599396,355.844330 304.979675,354.668304 304.908905,351.169952   C304.750580,343.341614 304.777985,335.506622 304.899323,327.676971   C304.949707,324.424591 303.621857,323.275146 300.430359,323.324402   C292.934326,323.440033 285.434296,323.344269 277.936401,323.278137   C270.364746,323.211365 266.202454,319.639954 266.264130,313.354736   C266.326996,306.948822 270.198486,303.828094 278.168823,303.797119   C285.333771,303.769287 292.501007,303.663269 299.662933,303.805420   C303.035767,303.872345 304.168427,302.867523 305.117645,299.260376   C306.745361,293.075012 304.405975,288.942505 300.969391,284.395050   C292.131531,272.700378 283.497009,260.845520 275.044189,248.869080   C270.708435,242.725876 273.405548,235.793289 280.417938,234.051712   C284.955475,232.924805 288.029877,235.085480 290.610718,238.598129   C300.276764,251.754074 310.156921,264.755646 319.638000,278.042603   C322.274841,281.737946 325.100525,283.329773 329.584015,283.010437   C334.391754,282.667969 339.262787,282.663696 344.069702,283.013489   C349.043427,283.375397 350.797882,281.673889 350.718140,276.542175   C350.448944,259.216980 350.641174,241.884933 350.593994,224.555679   C350.582428,220.308929 352.046967,217.038849 356.136444,215.409927   C359.827057,213.939850 363.356995,214.395905 366.449371,216.973419   C369.307068,219.355286 369.561737,222.728165 369.588074,226.102875   C369.718140,242.757401 369.818237,259.412170 369.922058,276.066895   C369.964569,282.892059 369.973694,282.908905 376.967102,282.927368   C382.132568,282.940979 387.309265,282.750580 392.459747,283.035126   C396.203247,283.241943 398.703644,282.054535 400.753265,278.845886   C404.696808,272.672272 408.986206,266.719574 413.344910,260.385010  M395.396759,306.484863   C394.402618,303.803558 392.195190,303.411377 389.724274,303.413605   C369.753235,303.431702 349.782043,303.473083 329.811218,303.407806   C325.163971,303.392609 323.291351,305.394073 323.313019,310.065063   C323.419556,333.031281 323.326813,355.998291 323.356873,378.964966   C323.364563,384.826477 324.525269,385.965576 330.394165,385.978638   C349.865845,386.022034 369.337646,386.025116 388.809418,386.010193   C394.262085,386.005981 395.604340,384.743744 395.610107,379.217896   C395.635193,355.253296 395.578461,331.288635 395.396759,306.484863  z"/>
<path fill="#FFFFFF" opacity="1.000000" stroke="none" d=" M350.190186,316.129395   C359.983368,316.285187 369.298523,316.542023 378.613892,316.550323   C382.027863,316.553345 383.339172,317.807831 383.315857,321.248810   C383.206665,337.392426 383.215820,353.537262 383.282623,369.681274   C383.295624,372.824463 382.127930,374.225281 378.902893,374.205475   C365.921387,374.125793 352.939117,374.132233 339.957336,374.172180   C336.968384,374.181366 335.795258,372.774506 335.802277,369.899750   C335.842529,353.422729 335.856720,336.945526 335.820435,320.468567   C335.814362,317.704376 337.047180,316.603455 339.742065,316.577728   C343.066559,316.546051 346.388947,316.290710 350.190186,316.129395  z"/>
</svg>
