<svg width="20" height="20" viewBox="0 0 20 20" fill="none" xmlns="http://www.w3.org/2000/svg">
<path d="M2.08203 10.2803C2.08203 8.43932 3.57507 6.94727 5.41602 6.94727L9.79102 6.94727L9.79102 12.7803C9.79106 13.1254 10.0709 13.4053 10.416 13.4053C10.761 13.4051 11.041 13.1253 11.041 12.7803L11.041 6.94727L15.416 6.94727C17.2568 6.94744 18.749 8.43943 18.749 10.2803L18.749 14.4473C18.7488 16.2879 17.2567 17.7801 15.416 17.7803L5.41602 17.7803C3.5752 17.7803 2.08225 16.288 2.08203 14.4473L2.08203 10.2803ZM7.47363 4.88867C7.22993 4.64462 7.22983 4.24886 7.47363 4.00488L9.38476 2.09473C9.95429 1.52533 10.8778 1.52525 11.4473 2.09473L13.3584 4.00488C13.602 4.24884 13.6019 4.64468 13.3584 4.88867C13.1144 5.13268 12.7177 5.13255 12.4736 4.88867L11.041 3.45605L11.041 6.94727L9.79102 6.94727L9.79101 3.45605L8.3584 4.88867C8.11439 5.13268 7.71773 5.13255 7.47363 4.88867Z" fill="white"/>
</svg>
