<svg width="20" height="20" viewBox="0 0 20 20" fill="none" xmlns="http://www.w3.org/2000/svg">
<path d="M10.001 1.04166C14.9484 1.04166 18.9598 5.05226 18.96 9.99966C18.96 14.9472 14.9485 18.9586 10.001 18.9586C8.42862 18.9586 6.94883 18.5524 5.66309 17.8395C5.58453 17.7961 5.50763 17.7939 5.45312 17.8131L3.35156 18.5563C2.06361 19.0114 0.823308 17.771 1.27832 16.4831L2.05176 14.2936C2.07027 14.2411 2.06863 14.1681 2.0293 14.0915C1.39841 12.8644 1.04297 11.4723 1.04297 9.99966C1.04314 5.05237 5.05368 1.04183 10.001 1.04166ZM5.87598 8.99966C5.30083 8.99984 4.83496 9.46647 4.83496 10.0417C4.83509 10.6167 5.30091 11.0825 5.87598 11.0827C6.45119 11.0827 6.91784 10.6168 6.91797 10.0417C6.91797 9.46636 6.45127 8.99966 5.87598 8.99966ZM10.043 8.99966C9.46775 8.99975 9.00098 9.46641 9.00098 10.0417C9.00106 10.6168 9.4678 11.0826 10.043 11.0827C10.6182 11.0827 11.0849 10.6169 11.085 10.0417C11.085 9.46636 10.6183 8.99966 10.043 8.99966ZM14.21 8.99966C13.6347 8.99966 13.168 9.46636 13.168 10.0417C13.1681 10.6169 13.6347 11.0827 14.21 11.0827C14.7851 11.0826 15.2509 10.6168 15.251 10.0417C15.251 9.46641 14.7852 8.99975 14.21 8.99966Z" fill="white"/>
</svg>
