<svg width="20" height="20" viewBox="0 0 20 20" fill="none" xmlns="http://www.w3.org/2000/svg">
<path d="M10.001 1.6665L10.001 1.0415L10.001 1.0415L10.001 1.6665ZM18.335 9.99951L18.96 9.99951L18.96 9.99949L18.335 9.99951ZM10.001 18.3335L10.001 18.9585H10.001V18.3335ZM3.14355 17.9673L3.35179 18.5566L3.35196 18.5565L3.14355 17.9673ZM1.86719 16.6909L2.45649 16.8991L2.45655 16.8989L1.86719 16.6909ZM1.66797 9.99951L1.04297 9.99949V9.99951H1.66797ZM2.58616 13.8015L3.14201 13.5157L2.58616 13.8015ZM5.96766 17.2924L6.27075 16.7458L5.96766 17.2924ZM5.2464 17.2235L5.038 16.6343L5.2464 17.2235ZM10.001 1.6665V2.2915C14.2581 2.2915 17.7098 5.74254 17.71 9.99954L18.335 9.99951L18.96 9.99949C18.9598 5.05203 14.9483 1.0415 10.001 1.0415V1.6665ZM18.335 9.99951H17.71C17.71 14.2567 14.2582 17.7085 10.001 17.7085V18.3335V18.9585C14.9485 18.9585 18.96 14.9471 18.96 9.99951H18.335ZM10.001 18.3335L10.001 17.7085C8.64666 17.7084 7.37584 17.3586 6.27075 16.7458L5.96766 17.2924L5.66457 17.8389C6.94979 18.5516 8.42852 18.9584 10.001 18.9585L10.001 18.3335ZM5.2464 17.2235L5.038 16.6343L2.93515 17.3781L3.14355 17.9673L3.35196 18.5565L5.4548 17.8128L5.2464 17.2235ZM3.14355 17.9673L2.93532 17.378C2.63817 17.483 2.35146 17.1964 2.45649 16.8991L1.86719 16.6909L1.27788 16.4827C0.822879 17.7706 2.06375 19.0117 3.35179 18.5566L3.14355 17.9673ZM1.86719 16.6909L2.45655 16.8989L3.23074 14.7056L2.64137 14.4975L2.05201 14.2895L1.27782 16.4829L1.86719 16.6909ZM2.58616 13.8015L3.14201 13.5157C2.60015 12.4616 2.29297 11.2673 2.29297 9.99951H1.66797H1.04297C1.04297 11.4716 1.40015 12.8614 2.0303 14.0872L2.58616 13.8015ZM1.66797 9.99951L2.29297 9.99954C2.29313 5.74258 5.74405 2.29167 10.001 2.2915L10.001 1.6665L10.001 1.0415C5.05368 1.04169 1.04316 5.05221 1.04297 9.99949L1.66797 9.99951ZM2.64137 14.4975L3.23074 14.7056C3.37369 14.3005 3.32447 13.8707 3.14201 13.5157L2.58616 13.8015L2.0303 14.0872C2.06966 14.1638 2.07055 14.237 2.05201 14.2895L2.64137 14.4975ZM5.96766 17.2924L6.27075 16.7458C5.9076 16.5444 5.45965 16.4852 5.038 16.6343L5.2464 17.2235L5.4548 17.8128C5.5094 17.7935 5.58595 17.7953 5.66457 17.8389L5.96766 17.2924Z" fill="white" fill-opacity="0.7"/>
<circle cx="5.8776" cy="10.0412" r="1.04167" fill="white" fill-opacity="0.7"/>
<circle cx="10.0456" cy="10.0412" r="1.04167" fill="white" fill-opacity="0.7"/>
<circle cx="14.2096" cy="10.0412" r="1.04167" fill="white" fill-opacity="0.7"/>
</svg>
