<svg width="24" height="24" viewBox="0 0 24 24" fill="none" xmlns="http://www.w3.org/2000/svg">
<path d="M16.1044 4.25428C16.3435 4.01518 16.6273 3.82552 16.9397 3.69612C17.2521 3.56672 17.5869 3.50012 17.925 3.50012C18.2632 3.50012 18.598 3.56672 18.9104 3.69612C19.2228 3.82552 19.5066 4.01518 19.7457 4.25428C19.9848 4.49337 20.1745 4.77722 20.3039 5.08961C20.4333 5.40201 20.4999 5.73683 20.4999 6.07496C20.4999 6.4131 20.4333 6.74792 20.3039 7.06031C20.1745 7.37271 19.9848 7.65655 19.7457 7.89565L7.15321 20.5001H3.50012V16.847L16.1044 4.25428Z" stroke="black" stroke-width="1.41665" stroke-linejoin="round"/>
<path d="M17.6666 14.8333L17.7989 15.1908C18.2006 16.2765 19.0567 17.1326 20.1424 17.5343L20.4999 17.6666L20.1424 17.7989C19.0567 18.2006 18.2006 19.0567 17.7989 20.1424L17.6666 20.4999L17.5343 20.1424C17.1326 19.0567 16.2765 18.2006 15.1908 17.7989L14.8333 17.6666L15.1908 17.5343C16.2765 17.1326 17.1326 16.2765 17.5343 15.1908L17.6666 14.8333Z" stroke="black" stroke-width="1.41665" stroke-linejoin="round"/>
</svg>
