<svg viewBox="0 0 24 24" fill="none" xmlns="http://www.w3.org/2000/svg">
<path d="M6 9.00024V2.00024H18V9.00024M6 18.0002H4C3.46957 18.0002 2.96086 17.7895 2.58579 17.4145C2.21071 17.0394 2 16.5307 2 16.0002V11.0002C2 10.4698 2.21071 9.9611 2.58579 9.58603C2.96086 9.21096 3.46957 9.00024 4 9.00024H12H20C20.5304 9.00024 21.0391 9.21096 21.4142 9.58603C21.7893 9.9611 22 10.4698 22 11.0002V16.0002C22 16.5307 21.7893 17.0394 21.4142 17.4145C21.0391 17.7895 20.5304 18.0002 20 18.0002H18M6 14.0002H18V22.0002H6V14.0002Z" stroke="#323232" stroke-width="1.5" stroke-linecap="round" stroke-linejoin="round"/>
</svg>
