<svg width="20" height="20" viewBox="0 0 20 20" fill="none" xmlns="http://www.w3.org/2000/svg">
<path d="M10.0029 1.0415C10.7626 1.04153 11.5013 1.13636 12.207 1.31494C12.7828 1.46078 13.0801 1.95814 13.1758 2.37158C13.2891 2.86135 13.5968 3.3022 14.0654 3.57275C14.4963 3.82152 14.9833 3.87986 15.4326 3.77393C15.8454 3.67664 16.4218 3.72341 16.8076 4.17334C17.525 5.01056 18.0916 5.98278 18.4629 7.04639C18.6842 7.68096 18.3409 8.25242 17.9785 8.55127C17.56 8.89611 17.294 9.41681 17.2939 9.99951C17.2939 10.5823 17.5599 11.1029 17.9785 11.4478C18.3411 11.7466 18.6845 12.3188 18.4629 12.9536C18.0916 14.017 17.5258 14.9886 16.8086 15.8257C16.4227 16.276 15.8456 16.3225 15.4326 16.2251C14.9833 16.1191 14.4963 16.1775 14.0654 16.4263C13.5967 16.6969 13.2891 17.1385 13.1758 17.6284C13.08 18.0418 12.7827 18.5393 12.207 18.6851C11.5014 18.8636 10.7626 18.9585 10.0029 18.9585C9.24326 18.9585 8.5045 18.8636 7.79883 18.6851C7.22302 18.5394 6.92586 18.0419 6.83008 17.6284C6.71679 17.1386 6.409 16.6969 5.94043 16.4263C5.5095 16.1775 5.02161 16.1191 4.57227 16.2251C4.15935 16.3224 3.583 16.2758 3.19727 15.8257C2.48005 14.9886 1.91424 14.017 1.54297 12.9536C1.32129 12.3186 1.6647 11.7465 2.02734 11.4478C2.4459 11.1029 2.71094 10.5823 2.71094 9.99951C2.71086 9.41681 2.44588 8.89611 2.02734 8.55127C1.6648 8.25247 1.32145 7.68121 1.54297 7.04639C1.91428 5.98278 2.47987 5.01056 3.19727 4.17334C3.58312 3.72311 4.16032 3.67656 4.57324 3.77393C5.02247 3.87978 5.50963 3.82148 5.94043 3.57275C6.40883 3.30221 6.71575 2.86119 6.8291 2.37158C6.92478 1.95807 7.22283 1.46069 7.79883 1.31494C8.50454 1.13638 9.24322 1.0415 10.0029 1.0415ZM10.0029 7.49951C8.62235 7.49957 7.50306 8.61895 7.50293 9.99951C7.50293 11.3802 8.62227 12.4994 10.0029 12.4995C11.3836 12.4995 12.5029 11.3802 12.5029 9.99951C12.5028 8.61891 11.3836 7.49951 10.0029 7.49951Z" fill="white"/>
</svg>
