<svg width="21" height="22" viewBox="0 0 21 22" fill="none" xmlns="http://www.w3.org/2000/svg">
<circle cx="3" cy="3" r="3" transform="matrix(-1 0 0 1 13.2341 7.75)" fill="white" fill-opacity="0.25" stroke="white" stroke-width="1.5"/>
<path d="M10.2346 0.75C11.0846 0.750036 11.9098 0.856002 12.6977 1.05557C13.0247 1.13839 13.2376 1.43671 13.3135 1.76539C13.494 2.54709 13.9849 3.25468 14.7346 3.6875C15.4226 4.0846 16.2015 4.17633 16.9178 4.00733C17.2454 3.93007 17.606 3.98876 17.8251 4.24417C18.6286 5.18079 19.2613 6.26736 19.6761 7.45679C19.801 7.81525 19.6194 8.19498 19.3265 8.43652C18.6597 8.98638 18.2346 9.81809 18.2346 10.75C18.2346 11.6818 18.6599 12.5129 19.3266 13.0626C19.6195 13.304 19.8011 13.6837 19.6761 14.0421C19.2613 15.2318 18.6279 16.3183 17.824 17.255C17.605 17.5103 17.2444 17.5691 16.917 17.492C16.2008 17.3234 15.4223 17.4155 14.7346 17.8125C13.9851 18.2452 13.4942 18.9524 13.3136 19.7338C13.2376 20.0624 13.0248 20.3606 12.6979 20.4435C11.9099 20.6434 11.0847 20.75 10.2346 20.75C9.38396 20.75 8.55791 20.6435 7.76933 20.4435C7.44245 20.3606 7.22962 20.0624 7.15384 19.7338C6.97365 18.9525 6.48389 18.2453 5.73462 17.8125C5.04662 17.4153 4.26716 17.323 3.55049 17.4918C3.22293 17.5689 2.86223 17.5102 2.64312 17.2548C1.8396 16.3181 1.20678 15.2316 0.792122 14.0421C0.66718 13.6837 0.848789 13.304 1.14171 13.0627C1.80872 12.513 2.23462 11.6819 2.23462 10.75C2.23462 9.81803 1.80888 8.98631 1.14184 8.43646C0.848897 8.19498 0.667231 7.81524 0.792219 7.45676C1.20692 6.26737 1.83963 5.18082 2.64309 4.24421C2.86221 3.98878 3.22292 3.93009 3.55046 4.00738C4.26713 4.17648 5.04654 4.08476 5.73462 3.6875C6.48414 3.25466 6.97388 2.547 7.15395 1.76535C7.22966 1.43666 7.44252 1.13838 7.7695 1.05557C8.55802 0.855862 9.38411 0.75 10.2346 0.75Z" fill="white" fill-opacity="0.25"/>
<path d="M10.2346 0.75L10.2347 0H10.2346V0.75ZM14.7346 3.6875L14.3596 4.33702L14.3597 4.33705L14.7346 3.6875ZM14.7346 17.8125L14.3596 17.163L14.3596 17.163L14.7346 17.8125ZM10.2346 20.75L10.2346 21.5L10.2347 21.5L10.2346 20.75ZM5.73462 17.8125L6.10973 17.163L6.10962 17.163L5.73462 17.8125ZM5.73462 3.6875L6.10962 4.33702L6.10969 4.33698L5.73462 3.6875ZM7.15395 1.76535L7.8848 1.93371L7.15395 1.76535ZM2.64312 17.2548L2.07387 17.7431L2.64312 17.2548ZM7.76933 20.4435L7.9537 19.7165L7.76933 20.4435ZM13.3136 19.7338L12.5829 19.5649L13.3136 19.7338ZM12.6979 20.4435L12.8823 21.1705L12.6979 20.4435ZM17.824 17.255L17.2549 16.7666L17.824 17.255ZM16.917 17.492L16.7451 18.222L16.917 17.492ZM19.6761 7.45679L18.9679 7.7037L19.6761 7.45679ZM19.3265 8.43652L18.8493 7.8579L19.3265 8.43652ZM1.14171 13.0627L1.61867 13.6415L1.14171 13.0627ZM17.8251 4.24417L17.2559 4.7325L17.8251 4.24417ZM13.3135 1.76539L14.0443 1.59665L14.0443 1.59665L13.3135 1.76539ZM10.2346 0.75L10.2346 1.5C11.022 1.50003 11.7854 1.59818 12.5136 1.78261L12.6977 1.05557L12.8819 0.328526C12.0342 0.113828 11.1471 3.81514e-05 10.2347 6.55508e-10L10.2346 0.75ZM13.3135 1.76539L12.5827 1.93414C12.808 2.9095 13.422 3.79568 14.3596 4.33702L14.7346 3.6875L15.1096 3.03798C14.5479 2.71368 14.1801 2.18468 14.0443 1.59665L13.3135 1.76539ZM14.7346 3.6875L14.3597 4.33705C15.2204 4.83386 16.196 4.9482 17.09 4.73729L16.9178 4.00733L16.7456 3.27736C16.2069 3.40446 15.6248 3.33534 15.1096 3.03795L14.7346 3.6875ZM17.8251 4.24417L17.2559 4.7325C17.9995 5.59927 18.5845 6.60424 18.9679 7.7037L19.6761 7.45679L20.3842 7.20987C19.9382 5.93047 19.2578 4.76231 18.3944 3.75583L17.8251 4.24417ZM19.3265 8.43652L18.8493 7.8579C18.0174 8.54398 17.4846 9.5845 17.4846 10.75H18.2346H18.9846C18.9846 10.0517 19.3021 9.42878 19.8037 9.01513L19.3265 8.43652ZM18.2346 10.75H17.4846C17.4846 11.9156 18.0177 12.9555 18.8495 13.6413L19.3266 13.0626L19.8037 12.4839C19.3021 12.0703 18.9846 11.448 18.9846 10.75H18.2346ZM19.6761 14.0421L18.9679 13.7952C18.5845 14.8947 17.999 15.8996 17.2549 16.7666L17.824 17.255L18.3932 17.7435C19.2569 16.737 19.938 15.5689 20.3843 14.289L19.6761 14.0421ZM16.917 17.492L17.0889 16.7619C16.195 16.5515 15.2198 16.6664 14.3596 17.163L14.7346 17.8125L15.1096 18.462C15.6248 18.1646 16.2067 18.0953 16.7451 18.222L16.917 17.492ZM14.7346 17.8125L14.3596 17.163C13.4223 17.7042 12.8082 18.5898 12.5829 19.5649L13.3136 19.7338L14.0443 19.9027C14.1802 19.315 14.5479 18.7863 15.1096 18.462L14.7346 17.8125ZM12.6979 20.4435L12.5135 19.7165C11.785 19.9013 11.0218 20 10.2346 20L10.2346 20.75L10.2347 21.5C11.1477 21.5 12.0348 21.3855 12.8823 21.1705L12.6979 20.4435ZM10.2346 20.75V20C9.44677 20 8.68263 19.9014 7.9537 19.7165L7.76933 20.4435L7.58496 21.1705C8.43319 21.3856 9.32115 21.5 10.2346 21.5V20.75ZM7.15384 19.7338L7.88466 19.5653C7.65988 18.5906 7.04728 17.7046 6.10973 17.163L5.73462 17.8125L5.35951 18.462C5.9205 18.786 6.28742 19.3144 6.42302 19.9024L7.15384 19.7338ZM5.73462 17.8125L6.10962 17.163C5.24913 16.6662 4.27302 16.5511 3.37855 16.7618L3.55049 17.4918L3.72244 18.2218C4.2613 18.0949 4.84411 18.1644 5.35962 18.462L5.73462 17.8125ZM2.64312 17.2548L3.21237 16.7665C2.46873 15.8996 1.88359 14.8947 1.50033 13.7952L0.792122 14.0421L0.0839183 14.289C0.529964 15.5686 1.21047 16.7366 2.07387 17.7431L2.64312 17.2548ZM1.14171 13.0627L1.61867 13.6415C2.45059 12.9559 2.98462 11.916 2.98462 10.75H2.23462H1.48462C1.48462 11.4477 1.16686 12.0701 0.664755 12.4839L1.14171 13.0627ZM2.23462 10.75H2.98462C2.98462 9.58409 2.45094 8.5436 1.61889 7.85774L1.14184 8.43646L0.664793 9.01519C1.16682 9.42901 1.48462 10.052 1.48462 10.75H2.23462ZM0.792219 7.45676L1.50041 7.70368C1.88374 6.60426 2.46879 5.5993 3.21234 4.73253L2.64309 4.24421L2.07385 3.75588C1.21047 4.76234 0.530098 5.93048 0.0840303 7.20984L0.792219 7.45676ZM3.55046 4.00738L3.37822 4.73733C4.2725 4.94834 5.24871 4.83406 6.10962 4.33702L5.73462 3.6875L5.35962 3.03798C4.84436 3.33546 4.26177 3.40462 3.7227 3.27742L3.55046 4.00738ZM5.73462 3.6875L6.10969 4.33698C7.04767 3.7953 7.66021 2.90867 7.8848 1.93371L7.15395 1.76535L6.42309 1.59699C6.28755 2.18533 5.92061 2.71401 5.35955 3.03802L5.73462 3.6875ZM7.7695 1.05557L7.95363 1.78261C8.68229 1.59807 9.44654 1.5 10.2346 1.5V0.75V0C9.32168 0 8.43374 0.113657 7.58536 0.328522L7.7695 1.05557ZM7.15395 1.76535L7.8848 1.93371C7.90027 1.86656 7.92657 1.81922 7.94694 1.79443C7.96443 1.77316 7.96749 1.7791 7.95363 1.78261L7.7695 1.05557L7.58536 0.328522C6.89448 0.503499 6.53753 1.10019 6.42309 1.59699L7.15395 1.76535ZM1.14184 8.43646L1.61889 7.85774C1.55822 7.80772 1.52298 7.75364 1.50885 7.71749C1.49697 7.68708 1.50572 7.68844 1.50041 7.70368L0.792219 7.45676L0.0840303 7.20984C-0.181367 7.97103 0.229778 8.6566 0.664793 9.01519L1.14184 8.43646ZM3.55049 17.4918L3.37855 16.7618C3.31167 16.7775 3.25771 16.7749 3.22645 16.7676C3.19957 16.7613 3.20327 16.7559 3.21237 16.7665L2.64312 17.2548L2.07387 17.7431C2.53639 18.2823 3.22702 18.3385 3.72244 18.2218L3.55049 17.4918ZM7.76933 20.4435L7.9537 19.7165C7.96748 19.72 7.96436 19.7259 7.94685 19.7046C7.92645 19.6798 7.90014 19.6324 7.88466 19.5653L7.15384 19.7338L6.42302 19.9024C6.53756 20.399 6.89445 20.9954 7.58496 21.1705L7.76933 20.4435ZM13.3136 19.7338L12.5829 19.5649C12.5673 19.6322 12.5409 19.6796 12.5205 19.7045C12.5029 19.7259 12.4997 19.72 12.5135 19.7165L12.6979 20.4435L12.8823 21.1705C13.5728 20.9954 13.9296 20.399 14.0443 19.9027L13.3136 19.7338ZM17.824 17.255L17.2549 16.7666C17.264 16.756 17.2676 16.7615 17.2408 16.7678C17.2096 16.775 17.1557 16.7777 17.0889 16.7619L16.917 17.492L16.7451 18.222C17.2405 18.3386 17.9308 18.2823 18.3932 17.7435L17.824 17.255ZM19.6761 7.45679L18.9679 7.7037C18.9625 7.68846 18.9713 7.6871 18.9594 7.71753C18.9453 7.75371 18.91 7.80784 18.8493 7.8579L19.3265 8.43652L19.8037 9.01513C20.2385 8.65655 20.6496 7.97104 20.3842 7.20987L19.6761 7.45679ZM0.792122 14.0421L1.50033 13.7952C1.50564 13.8105 1.4969 13.8119 1.50876 13.7815C1.52287 13.7454 1.55806 13.6914 1.61867 13.6415L1.14171 13.0627L0.664755 12.4839C0.229634 12.8424 -0.181389 13.5279 0.0839183 14.289L0.792122 14.0421ZM16.9178 4.00733L17.09 4.73729C17.1568 4.72154 17.2107 4.72415 17.2419 4.73142C17.2687 4.73767 17.265 4.74311 17.2559 4.7325L17.8251 4.24417L18.3944 3.75583C17.9318 3.21667 17.2412 3.16046 16.7456 3.27736L16.9178 4.00733ZM2.64309 4.24421L3.21234 4.73253C3.20324 4.74314 3.19952 4.7377 3.22635 4.73145C3.25755 4.72418 3.31143 4.72157 3.37822 4.73733L3.55046 4.00738L3.7227 3.27742C3.22712 3.16048 2.53641 3.21667 2.07385 3.75588L2.64309 4.24421ZM19.3266 13.0626L18.8495 13.6413C18.9102 13.6913 18.9454 13.7453 18.9595 13.7815C18.9714 13.8118 18.9626 13.8104 18.9679 13.7952L19.6761 14.0421L20.3843 14.289C20.6497 13.5279 20.2386 12.8425 19.8037 12.4839L19.3266 13.0626ZM12.6977 1.05557L12.5136 1.78261C12.4997 1.7791 12.5028 1.77318 12.5204 1.79453C12.5408 1.8194 12.5672 1.86685 12.5827 1.93414L13.3135 1.76539L14.0443 1.59665C13.9296 1.10019 13.5727 0.503515 12.8819 0.328526L12.6977 1.05557Z" fill="white"/>
</svg>
