<svg width="20" height="20" viewBox="0 0 20 20" fill="none" xmlns="http://www.w3.org/2000/svg">
<circle cx="2.5" cy="2.5" r="2.5" transform="matrix(-1 0 0 1 12.5 7.5)" stroke="white" stroke-opacity="0.8" stroke-width="1.25"/>
<path d="M9.99902 1.66663L9.99903 1.04163H9.99902V1.66663ZM13.749 4.11487L13.4365 4.65613L13.4366 4.65615L13.749 4.11487ZM16.666 9.99963L16.041 9.99955V9.99963H16.666ZM13.749 15.8854L13.4365 15.3441L13.4365 15.3441L13.749 15.8854ZM9.99902 18.3336L9.99902 18.9586L9.99903 18.9586L9.99902 18.3336ZM6.24902 15.8854L6.56157 15.3441L6.56152 15.3441L6.24902 15.8854ZM3.33203 9.99963L3.95703 9.99963L3.95703 9.99955L3.33203 9.99963ZM6.24902 4.11487L6.5615 4.65615L6.56152 4.65613L6.24902 4.11487ZM2.42201 8.0719L2.81966 7.58972L2.42201 8.0719ZM4.4287 15.6177L4.28546 15.0094L4.4287 15.6177ZM7.94455 18.0778L7.79078 18.6836L7.94455 18.0778ZM7.4317 17.4864L6.82268 17.6268L7.4317 17.4864ZM12.0527 18.0768L12.2067 18.6826L12.0527 18.0768ZM15.5685 15.6179L15.4253 16.2263L15.5685 15.6179ZM17.8673 7.2554L17.2772 7.46124L17.8673 7.2554ZM17.576 8.0719L17.1784 7.5897L17.576 8.0719ZM2.1305 12.7426L1.5403 12.9483L2.1305 12.7426ZM2.42178 11.9265L2.02425 11.4443L2.42178 11.9265ZM16.3246 4.57888L16.7989 4.1719L16.3246 4.57888ZM4.42866 4.38084L4.57246 3.77261L4.42866 4.38084ZM17.5762 11.9265L17.1787 12.4088L17.5762 11.9265ZM17.8675 12.7427L17.2773 12.537L17.8675 12.7427ZM12.0526 1.9225L11.8988 2.52829L12.0526 1.9225ZM12.5655 2.51377L11.9566 2.65448L12.5655 2.51377ZM9.99902 1.66663L9.99902 2.29163C10.6552 2.29163 11.2914 2.37411 11.8988 2.52829L12.0526 1.9225L12.2064 1.31672C11.4999 1.13738 10.7604 1.04163 9.99903 1.04163L9.99902 1.66663ZM12.5655 2.51377L11.9566 2.65448C12.1442 3.46671 12.6553 4.20509 13.4365 4.65613L13.749 4.11487L14.0615 3.5736C13.5939 3.30363 13.2877 2.86306 13.1745 2.37306L12.5655 2.51377ZM13.749 4.11487L13.4366 4.65615C14.1538 5.07018 14.967 5.16546 15.712 4.9898L15.5686 4.38148L15.4251 3.77316C14.9761 3.87904 14.4908 3.82139 14.0615 3.57359L13.749 4.11487ZM16.3246 4.57888L15.8503 4.98585C16.47 5.70813 16.9577 6.54531 17.2772 7.46124L17.8673 7.2554L18.4574 7.04956C18.0856 5.9835 17.5183 5.01039 16.7989 4.1719L16.3246 4.57888ZM17.576 8.0719L17.1784 7.5897C16.4851 8.16137 16.0411 9.02842 16.041 9.99955L16.666 9.99963L17.291 9.99972C17.2911 9.41779 17.5557 8.89875 17.9736 8.5541L17.576 8.0719ZM16.666 9.99963H16.041C16.041 10.9711 16.4856 11.8375 17.1787 12.4088L17.5762 11.9265L17.9737 11.4442C17.5556 11.0996 17.291 10.5811 17.291 9.99963H16.666ZM17.8675 12.7427L17.2773 12.537C16.9579 13.4533 16.4701 14.2908 15.8502 15.0134L16.3246 15.4204L16.7989 15.8273C17.5186 14.9885 18.0859 14.015 18.4577 12.9484L17.8675 12.7427ZM15.5685 15.6179L15.7117 15.0095C14.9664 14.8341 14.1534 14.9302 13.4365 15.3441L13.749 15.8854L14.0615 16.4266C14.4911 16.1786 14.9765 16.1206 15.4253 16.2263L15.5685 15.6179ZM13.749 15.8854L13.4365 15.3441C12.6556 15.795 12.1445 16.5327 11.9567 17.3448L12.5656 17.4856L13.1745 17.6264C13.2878 17.1369 13.5939 16.6967 14.0615 16.4266L13.749 15.8854ZM12.0527 18.0768L11.8987 17.4711C11.2911 17.6256 10.6549 17.7086 9.99902 17.7086L9.99902 18.3336L9.99903 18.9586C10.7609 18.9586 11.5004 18.8621 12.2067 18.6826L12.0527 18.0768ZM9.99902 18.3336V17.7086C9.34254 17.7086 8.70588 17.6262 8.09832 17.472L7.94455 18.0778L7.79078 18.6836C8.49757 18.863 9.2375 18.9586 9.99902 18.9586V18.3336ZM7.4317 17.4864L8.04072 17.3459C7.85341 16.5337 7.34297 15.7954 6.56157 15.3441L6.24902 15.8854L5.93648 16.4266C6.40399 16.6966 6.70969 17.1368 6.82268 17.6268L7.4317 17.4864ZM6.24902 15.8854L6.56152 15.3441C5.84453 14.9302 5.03108 14.8338 4.28546 15.0094L4.4287 15.6177L4.57193 16.2261C5.02088 16.1204 5.50668 16.1785 5.93652 16.4266L6.24902 15.8854ZM3.67241 15.4202L4.14685 15.0133C3.52732 14.2909 3.03997 13.4533 2.72071 12.537L2.1305 12.7426L1.5403 12.9483C1.91182 14.0146 2.47857 14.9881 3.19797 15.827L3.67241 15.4202ZM2.42178 11.9265L2.81932 12.4088C3.51241 11.8375 3.95703 10.9711 3.95703 9.99963H3.33203H2.70703C2.70703 10.5811 2.44242 11.0996 2.02425 11.4443L2.42178 11.9265ZM3.33203 9.99963L3.95703 9.99955C3.9569 9.02842 3.51287 8.16138 2.81966 7.58972L2.42201 8.0719L2.02437 8.55409C2.44235 8.89878 2.70695 9.41786 2.70703 9.99972L3.33203 9.99963ZM2.13067 7.25541L2.72084 7.46112C3.04022 6.54484 3.52742 5.70719 4.14678 4.98499L3.67235 4.57812L3.19792 4.17125C2.47855 5.01006 1.91204 5.98374 1.54049 7.0497L2.13067 7.25541ZM4.42866 4.38084L4.28486 4.98907C5.03008 5.16526 5.84373 5.0705 6.5615 4.65615L6.24902 4.11487L5.93655 3.57359C5.5072 3.82144 5.0218 3.87884 4.57246 3.77261L4.42866 4.38084ZM6.24902 4.11487L6.56152 4.65613C7.34336 4.20474 7.85368 3.46571 8.04083 2.65328L7.43178 2.51299L6.82273 2.37269C6.70976 2.86311 6.40401 3.3037 5.93652 3.5736L6.24902 4.11487ZM7.94466 1.92157L8.0982 2.52741C8.7055 2.3735 9.34226 2.29163 9.99902 2.29163V1.66663V1.04163C9.23798 1.04163 8.49809 1.13655 7.79112 1.31572L7.94466 1.92157ZM7.43178 2.51299L8.04083 2.65328C8.05371 2.59737 8.07561 2.55794 8.09258 2.53728C8.10715 2.51956 8.10972 2.52449 8.0982 2.52741L7.94466 1.92157L7.79112 1.31572C7.21555 1.46159 6.9181 1.95868 6.82273 2.37269L7.43178 2.51299ZM2.42201 8.0719L2.81966 7.58972C2.76907 7.548 2.73968 7.50288 2.72789 7.47272C2.71797 7.44734 2.72526 7.44844 2.72084 7.46112L2.13067 7.25541L1.54049 7.0497C1.3194 7.684 1.662 8.25525 2.02437 8.55409L2.42201 8.0719ZM4.4287 15.6177L4.28546 15.0094C4.22967 15.0225 4.18465 15.0203 4.15858 15.0142C4.13616 15.009 4.13925 15.0045 4.14685 15.0133L3.67241 15.4202L3.19797 15.827C3.58345 16.2765 4.15912 16.3233 4.57193 16.2261L4.4287 15.6177ZM7.94455 18.0778L8.09832 17.472C8.10976 17.4749 8.10714 17.4798 8.09253 17.462C8.07553 17.4413 8.05361 17.4019 8.04072 17.3459L7.4317 17.4864L6.82268 17.6268C6.91814 18.0407 7.21553 18.5375 7.79078 18.6836L7.94455 18.0778ZM12.5656 17.4856L11.9567 17.3448C11.9437 17.4007 11.9218 17.4402 11.9047 17.461C11.89 17.4788 11.8873 17.474 11.8987 17.4711L12.0527 18.0768L12.2067 18.6826C12.7815 18.5364 13.0788 18.0401 13.1745 17.6264L12.5656 17.4856ZM16.3246 15.4204L15.8502 15.0134C15.8578 15.0046 15.8609 15.0091 15.8385 15.0144C15.8124 15.0204 15.7674 15.0226 15.7117 15.0095L15.5685 15.6179L15.4253 16.2263C15.8381 16.3234 16.4135 16.2765 16.7989 15.8273L16.3246 15.4204ZM17.8673 7.2554L17.2772 7.46124C17.2727 7.44851 17.28 7.44735 17.2701 7.47271C17.2584 7.50286 17.229 7.54797 17.1784 7.5897L17.576 8.0719L17.9736 8.5541C18.336 8.25529 18.6787 7.68396 18.4574 7.04956L17.8673 7.2554ZM2.1305 12.7426L2.72071 12.537C2.72513 12.5497 2.71785 12.5508 2.72773 12.5255C2.73949 12.4954 2.76882 12.4504 2.81932 12.4088L2.42178 11.9265L2.02425 11.4443C1.66176 11.743 1.31936 12.3142 1.5403 12.9483L2.1305 12.7426ZM15.5686 4.38148L15.712 4.9898C15.7676 4.97668 15.8125 4.97886 15.8385 4.98492C15.8609 4.99014 15.8578 4.99468 15.8503 4.98585L16.3246 4.57888L16.7989 4.1719C16.4135 3.7227 15.8381 3.6758 15.4251 3.77316L15.5686 4.38148ZM3.67235 4.57812L4.14678 4.98499C4.13918 4.99385 4.13605 4.98933 4.15837 4.98413C4.18435 4.97808 4.22923 4.97592 4.28486 4.98907L4.42866 4.38084L4.57246 3.77261C4.15933 3.67493 3.58347 3.72168 3.19792 4.17125L3.67235 4.57812ZM17.5762 11.9265L17.1787 12.4088C17.2292 12.4505 17.2585 12.4955 17.2703 12.5256C17.2802 12.5508 17.2729 12.5497 17.2773 12.537L17.8675 12.7427L18.4577 12.9484C18.6787 12.3142 18.3362 11.743 17.9737 11.4442L17.5762 11.9265ZM12.0526 1.9225L11.8988 2.52829C11.8874 2.52539 11.89 2.52052 11.9047 2.53831C11.9217 2.55903 11.9436 2.59851 11.9566 2.65448L12.5655 2.51377L13.1745 2.37306C13.0789 1.95935 12.7815 1.46271 12.2064 1.31672L12.0526 1.9225Z" fill="white" fill-opacity="0.8"/>
</svg>
