<svg width="20" height="20" viewBox="0 0 20 20" fill="none" xmlns="http://www.w3.org/2000/svg">
<path d="M5.83333 1.875C3.64721 1.875 1.875 3.64721 1.875 5.83333V14.1667C1.875 16.3528 3.64721 18.125 5.83333 18.125H7.5C9.22589 18.125 10.625 16.7259 10.625 15C10.625 14.6548 10.3452 14.375 10 14.375C9.65482 14.375 9.375 14.6548 9.375 15C9.375 16.0355 8.53553 16.875 7.5 16.875H5.83333C4.33756 16.875 3.125 15.6624 3.125 14.1667V5.83333C3.125 4.33756 4.33756 3.125 5.83333 3.125H7.5C8.53553 3.125 9.375 3.96447 9.375 5C9.375 5.34518 9.65482 5.625 10 5.625C10.3452 5.625 10.625 5.34518 10.625 5C10.625 3.27411 9.22589 1.875 7.5 1.875H5.83333Z" fill="white" fill-opacity="0.8"/>
<path d="M16.2753 7.89139C16.0312 7.64731 15.6355 7.64731 15.3914 7.89139C15.1473 8.13547 15.1473 8.5312 15.3914 8.77528L15.9911 9.375H9.16667C8.82149 9.375 8.54167 9.65482 8.54167 10C8.54167 10.3452 8.82149 10.625 9.16667 10.625H15.9911L15.3914 11.2247C15.1473 11.4688 15.1473 11.8645 15.3914 12.1086C15.6355 12.3527 16.0312 12.3527 16.2753 12.1086L17.9419 10.4419C18.0592 10.3247 18.125 10.1658 18.125 10C18.125 9.83424 18.0592 9.67527 17.9419 9.55806L16.2753 7.89139Z" fill="white" fill-opacity="0.8"/>
</svg>
