<svg width="24" height="25" viewBox="0 0 24 25" fill="none" xmlns="http://www.w3.org/2000/svg">
<g clip-path="url(#clip0_499_2671)">
<path d="M23.7643 12.9325C23.7643 12.1168 23.6982 11.2966 23.5571 10.4941H12.2383V15.1151H18.72C18.451 16.6055 17.5868 17.9239 16.3213 18.7616V21.76H20.1883C22.4591 19.67 23.7643 16.5834 23.7643 12.9325Z" fill="#4285F4"/>
<path d="M12.2391 24.6571C15.4756 24.6571 18.205 23.5944 20.1936 21.7601L16.3266 18.7618C15.2507 19.4937 13.8618 19.9082 12.2435 19.9082C9.11291 19.9082 6.45849 17.7962 5.50607 14.9565H1.51562V18.0475C3.55274 22.0997 7.70192 24.6571 12.2391 24.6571V24.6571Z" fill="#34A853"/>
<path d="M5.50082 14.9565C4.99816 13.4661 4.99816 11.8523 5.50082 10.3619V7.271H1.51478C-0.187219 10.6618 -0.187219 14.6566 1.51478 18.0474L5.50082 14.9565V14.9565Z" fill="#FBBC04"/>
<path d="M12.2391 5.40591C13.9499 5.37945 15.6034 6.02322 16.8425 7.20492L20.2685 3.77887C18.0991 1.74175 15.2198 0.621784 12.2391 0.657059C7.70192 0.657059 3.55274 3.21447 1.51562 7.27106L5.50166 10.362C6.44967 7.51798 9.1085 5.40591 12.2391 5.40591V5.40591Z" fill="#EA4335"/>
</g>
<defs>
<clipPath id="clip0_499_2671">
<rect width="24" height="24" fill="white" transform="translate(0 0.65625)"/>
</clipPath>
</defs>
</svg>
