<svg width="24" height="25" viewBox="0 0 24 25" fill="none" xmlns="http://www.w3.org/2000/svg">
<g clip-path="url(#clip0_499_2679)">
<path d="M20.8418 17.8009C20.5091 18.5695 20.1153 19.2771 19.659 19.9275C19.0371 20.8143 18.5278 21.4281 18.1354 21.769C17.527 22.3284 16.8752 22.615 16.1772 22.6313C15.6761 22.6313 15.0718 22.4887 14.3683 22.1994C13.6626 21.9115 13.014 21.769 12.421 21.769C11.799 21.769 11.132 21.9115 10.4185 22.1994C9.70396 22.4887 9.12831 22.6394 8.68819 22.6544C8.01884 22.6829 7.35166 22.3882 6.68571 21.769C6.26066 21.3982 5.72901 20.7627 5.09212 19.8623C4.40878 18.9009 3.84698 17.786 3.40686 16.5149C2.93551 15.142 2.69922 13.8125 2.69922 12.5254C2.69922 11.0511 3.0178 9.77946 3.65592 8.71385C4.15742 7.85791 4.82459 7.18272 5.65962 6.68706C6.49464 6.19139 7.39688 5.93881 8.36852 5.92265C8.90017 5.92265 9.59736 6.0871 10.4637 6.4103C11.3277 6.73459 11.8824 6.89904 12.1256 6.89904C12.3075 6.89904 12.9237 6.70675 13.9684 6.32339C14.9564 5.96787 15.7902 5.82066 16.4732 5.87865C18.3241 6.02803 19.7147 6.75767 20.6395 8.0722C18.9841 9.07521 18.1653 10.48 18.1816 12.2822C18.1965 13.686 18.7057 14.8541 19.7066 15.7816C20.1601 16.2121 20.6667 16.5448 21.2302 16.7811C21.108 17.1355 20.979 17.475 20.8418 17.8009V17.8009ZM16.5968 1.09638C16.5968 2.19663 16.1948 3.22393 15.3936 4.17479C14.4267 5.30517 13.2572 5.95836 11.989 5.85529C11.9729 5.7233 11.9635 5.58437 11.9635 5.43839C11.9635 4.38215 12.4233 3.25177 13.2399 2.32752C13.6475 1.85956 14.166 1.47046 14.7948 1.16006C15.4221 0.8543 16.0156 0.685207 16.5737 0.65625C16.59 0.803336 16.5968 0.950432 16.5968 1.09636V1.09638Z" fill="black"/>
</g>
<defs>
<clipPath id="clip0_499_2679">
<rect width="24" height="24" fill="white" transform="translate(0 0.65625)"/>
</clipPath>
</defs>
</svg>
