<svg width="16" height="18" viewBox="0 0 16 18" fill="none" xmlns="http://www.w3.org/2000/svg">
<path d="M1.33203 3.99984C1.33203 2.15889 2.82442 0.666504 4.66536 0.666504H7.9987H9.71807C10.2127 0.666504 10.6818 0.886209 10.9984 1.2662L14.2791 5.20295C14.5287 5.50247 14.6654 5.88003 14.6654 6.26992V8.99984V13.9998C14.6654 15.8408 13.173 17.3332 11.332 17.3332H4.66536C2.82441 17.3332 1.33203 15.8408 1.33203 13.9998V3.99984Z" stroke="black" stroke-width="1.25"/>
<path d="M10.5 1.0835V4.00016C10.5 4.92064 11.2462 5.66683 12.1667 5.66683H14.25" stroke="black" stroke-width="1.25" stroke-linecap="round"/>
<path d="M11.332 9H4.66536" stroke="black" stroke-width="1.25" stroke-linecap="round"/>
<path d="M11.332 11.5H4.66536" stroke="black" stroke-width="1.25" stroke-linecap="round"/>
<path d="M11.332 14H4.66536" stroke="black" stroke-width="1.25" stroke-linecap="round"/>
<path d="M7.9987 14V9" stroke="black" stroke-width="1.25" stroke-linecap="round"/>
<path d="M11.332 14V9" stroke="black" stroke-width="1.25" stroke-linecap="round"/>
<path d="M4.66536 14V9" stroke="black" stroke-width="1.25" stroke-linecap="round"/>
</svg>
