<svg width="20" height="20" viewBox="0 0 20 20" fill="none" xmlns="http://www.w3.org/2000/svg">
<path d="M9.1458 2.25698C9.53446 1.61116 10.4708 1.61115 10.8594 2.25697L12.8015 5.48397C12.9411 5.71599 13.1688 5.88146 13.4326 5.94255L17.1018 6.79234C17.8361 6.96241 18.1255 7.85288 17.6314 8.42209L15.1624 11.2663C14.9849 11.4708 14.8979 11.7385 14.9213 12.0083L15.247 15.7605C15.3121 16.5114 14.5547 17.0617 13.8606 16.7677L10.3927 15.2985C10.1434 15.1929 9.86185 15.1929 9.61251 15.2985L6.14459 16.7677C5.45055 17.0617 4.69307 16.5114 4.75824 15.7605L5.08388 12.0083C5.1073 11.7385 5.02031 11.4708 4.8428 11.2663L2.37386 8.42209C1.87975 7.85288 2.16908 6.96241 2.90339 6.79234L6.57258 5.94255C6.83638 5.88146 7.06413 5.71599 7.20376 5.48398L9.1458 2.25698Z" stroke="#323232" stroke-width="1.25"/>
</svg>
