<svg width="118" height="96" viewBox="0 0 118 96" fill="none" xmlns="http://www.w3.org/2000/svg">
<g filter="url(#filter0_dddddd_2_26995)">
<rect x="26.9788" width="63.4043" height="80" rx="3.65957" fill="white"/>
</g>
<path fill-rule="evenodd" clip-rule="evenodd" d="M75.2632 64.8725C73.6029 65.7571 72.3905 68.5649 72.6378 70.9521C72.7349 71.8885 73.2208 73.2147 73.5758 73.5117C73.9088 73.7905 73.8246 74.0766 73.184 74.8428C72.5737 75.5727 72.4706 75.8314 72.7262 75.9908C72.8576 76.0727 73.3473 75.6036 74.0337 74.7387C74.3006 74.4024 74.3299 74.3984 74.8681 74.6252C75.1749 74.7544 75.6186 74.8602 75.8542 74.8602C76.5481 74.8602 77.6162 74.4242 78.2274 73.8913C78.7192 73.4627 78.85 73.4156 79.1908 73.5455C79.4077 73.628 79.7815 73.6458 80.0212 73.5851C80.4531 73.4758 81.6005 72.4002 82.3745 71.3788L82.776 70.849L82.7831 71.707C82.7973 73.4363 83.1648 73.4775 84.671 71.9187C85.4956 71.0652 85.8894 70.7687 86.3021 70.6906C86.6012 70.6339 86.8867 70.5213 86.9364 70.4403C87.1118 70.154 86.7208 69.9775 86.15 70.0855C85.7273 70.1655 85.3101 70.4611 84.4946 71.2585L83.4045 72.3246L83.3599 71.2084C83.3195 70.1932 83.2859 70.088 82.9883 70.0453C82.7319 70.0083 82.434 70.2887 81.6116 71.3401C80.633 72.5911 80.0868 73.0438 79.556 73.0438C79.2273 73.0438 79.2814 72.9032 80.0189 71.8381C80.6748 70.8911 81.2892 69.3068 81.2892 68.5626C81.2892 68.3633 81.1464 68.0562 80.972 67.8803C80.3209 67.2237 79.0969 67.8421 78.392 69.184C78.146 69.6525 78.0732 70.0634 78.0702 71.0004C78.0681 71.6664 78.1199 72.4157 78.1851 72.6654C78.2961 73.0909 78.2545 73.1528 77.5243 73.6493C76.8767 74.0896 76.6106 74.1791 75.9477 74.1791C74.7012 74.1791 74.6715 74.0197 75.6433 72.5466C77.0825 70.3657 77.9788 68.0468 77.9848 66.4897C77.9908 64.9356 76.6454 64.1359 75.2632 64.8725ZM77.0756 65.5716C77.8367 66.5472 77.0766 69.1923 75.2021 72.0927L74.3495 73.4115L73.9945 72.9953C72.7716 71.5614 73.0302 68.1092 74.4894 66.3899C75.545 65.1462 76.5065 64.8419 77.0756 65.5716ZM80.5857 68.9153C80.5549 69.6183 79.8618 71.197 79.2714 71.9086C78.9519 72.2938 78.8702 72.3283 78.7334 72.1356C78.4997 71.8072 78.6448 70.0309 78.9546 69.4269C79.3139 68.7261 79.9335 68.1777 80.3052 68.2313C80.5663 68.269 80.6094 68.3742 80.5857 68.9153Z" fill="#181818"/>
<path d="M74.8484 23.9284C76.3419 24.0589 77.7804 24.5548 79.0369 25.3727C80.2933 26.1906 81.3287 27.3059 82.0525 28.6188C82.7762 29.9316 83.1663 31.4021 83.1873 32.901C83.2082 34.4001 82.8604 35.8819 82.1736 37.2145H82.1726C82.1497 37.2585 82.1184 37.2976 82.0798 37.3288C82.0411 37.36 81.996 37.3831 81.948 37.3961H81.947L81.8542 37.4088C81.7864 37.4087 81.7193 37.3894 81.6619 37.3532L79.0515 35.7038C78.978 35.6573 78.923 35.5859 78.8982 35.5026C78.8734 35.4191 78.8804 35.3288 78.9167 35.2496C79.2352 34.5545 79.3988 33.7985 79.3972 33.0338C79.3946 31.7406 78.9254 30.4915 78.075 29.5172C77.2245 28.543 76.0503 27.9084 74.7693 27.7311C74.6831 27.7195 74.6039 27.6774 74.5466 27.612C74.4894 27.5465 74.4579 27.4625 74.4578 27.3756V24.2858L74.4656 24.2116C74.4707 24.1875 74.478 24.1639 74.488 24.1413C74.5082 24.0958 74.5381 24.0546 74.575 24.0211C74.6116 23.9879 74.6551 23.9629 74.7019 23.9469C74.7487 23.931 74.7981 23.9245 74.8474 23.9284H74.8484ZM75.1765 27.07C76.5512 27.334 77.7941 28.0633 78.6941 29.1373C79.6093 30.2296 80.1119 31.6088 80.115 33.0338C80.1163 33.7957 79.9706 34.5496 79.6902 35.2575L81.7039 36.5289C82.2438 35.3487 82.5067 34.0605 82.4656 32.7623C82.4234 31.432 82.0663 30.1301 81.4236 28.9645C80.7809 27.7991 79.8707 26.8029 78.7683 26.0573C77.6924 25.3296 76.4629 24.8624 75.1765 24.6891V27.07Z" fill="#181818" stroke="#181818" stroke-width="0.170213"/>
<path d="M68.8657 35.1819C68.9296 35.1729 68.995 35.1819 69.0552 35.2072C69.1352 35.241 69.2005 35.3022 69.2388 35.3801C69.6293 36.1816 70.2142 36.8731 70.9399 37.3908C71.6658 37.9086 72.5101 38.2366 73.395 38.3449C74.2801 38.4532 75.1789 38.3385 76.0083 38.011C76.8376 37.6835 77.5717 37.1537 78.144 36.4699C78.2 36.4033 78.2788 36.3594 78.3647 36.3459C78.4505 36.3326 78.5383 36.3505 78.6118 36.3967L81.228 38.0461H81.2271C81.2695 38.0725 81.3064 38.1073 81.3345 38.1487C81.3626 38.19 81.3821 38.2372 81.3911 38.2863C81.4 38.3352 81.3987 38.3855 81.3872 38.4338C81.3756 38.4824 81.354 38.5288 81.3237 38.5686L81.3228 38.5676C80.473 39.6924 79.3739 40.6047 78.1108 41.2307C76.9266 41.8176 75.6292 42.1385 74.3101 42.1721L74.0464 42.175C72.2601 42.176 70.5127 41.6533 69.02 40.6721C67.5274 39.6909 66.3543 38.2937 65.647 36.6535L65.6245 36.5822L65.6177 36.508C65.618 36.4582 65.6286 36.409 65.6489 36.3635C65.6694 36.3179 65.6997 36.2768 65.7368 36.2434C65.7739 36.2101 65.8174 36.1847 65.8647 36.1692L68.8032 35.1965L68.8657 35.1819ZM66.4741 36.7229C67.083 37.9703 67.9901 39.049 69.1167 39.8615C70.2692 40.6928 71.6134 41.2195 73.0239 41.3918C74.4344 41.5641 75.8654 41.3762 77.1841 40.8469C78.4733 40.3295 79.6131 39.5009 80.5044 38.4367L78.4858 37.1653C77.8419 37.8577 77.0466 38.3921 76.1597 38.7219C75.2501 39.06 74.2723 39.1747 73.3091 39.0569C72.3459 38.939 71.4247 38.5916 70.6235 38.0442C69.8421 37.5101 69.1977 36.8004 68.7397 35.9729L66.4741 36.7229Z" fill="#1E2938" stroke="#1E2938" stroke-width="0.170213"/>
<path d="M73.322 23.9284C73.3466 23.9314 73.3707 23.937 73.3943 23.945C73.4413 23.9611 73.4846 23.9866 73.5212 24.0202C73.5579 24.0538 73.5871 24.0948 73.6072 24.1403C73.6272 24.1858 73.6383 24.2351 73.6384 24.2848V27.3737C73.6385 27.4608 73.6069 27.5455 73.5496 27.611C73.4923 27.6764 73.413 27.7185 73.3269 27.7301C72.0454 27.9073 70.8711 28.5418 70.0203 29.5163C69.1694 30.4908 68.6996 31.7401 68.697 33.0339C68.6971 33.3612 68.7276 33.6879 68.7888 34.0094C68.8052 34.0949 68.7899 34.1834 68.7458 34.2585C68.7017 34.3336 68.6313 34.3902 68.5486 34.4176L65.6111 35.3903C65.5747 35.4023 65.5362 35.4078 65.4978 35.4079V35.4089C65.4168 35.409 65.3377 35.381 65.2742 35.3307C65.2107 35.2805 65.1658 35.2103 65.1472 35.1315C64.9848 34.4441 64.9034 33.7402 64.9041 33.0339V33.0329C64.915 30.7498 65.7748 28.5522 67.3171 26.8688C68.8595 25.1854 70.9743 24.1366 73.2478 23.9264L73.322 23.9284ZM72.9177 24.6882C71.8032 24.8394 70.7301 25.212 69.7615 25.7848C68.7649 26.3742 67.8999 27.162 67.2214 28.1003C66.5429 29.0387 66.0645 30.1077 65.8171 31.2389C65.5767 32.3386 65.5615 33.4747 65.7673 34.5807L68.032 33.8307C67.9963 33.5666 67.9774 33.3004 67.9773 33.0339C67.9809 31.609 68.4847 30.2302 69.4001 29.1384C70.3004 28.0647 71.5432 27.3356 72.9177 27.0719V24.6882Z" fill="#1E2938" stroke="#1E2938" stroke-width="0.170213"/>
<path d="M76.7629 24.3248C76.8555 24.3303 76.9421 24.372 77.0051 24.44C77.0682 24.5082 77.1025 24.5982 77.1008 24.691C77.0991 24.7838 77.0618 24.8724 76.9963 24.9381L76.9934 24.941L76.9924 24.94L75.0608 26.7252C74.9946 26.7869 74.9072 26.821 74.8167 26.8209C74.7445 26.8207 74.674 26.7991 74.6145 26.7584C74.5549 26.7176 74.5089 26.6596 74.4827 26.5924C74.4564 26.5252 74.451 26.4517 74.467 26.3814C74.4832 26.3111 74.5205 26.2469 74.5735 26.1978L76.5051 24.4127L76.5081 24.4107L76.5647 24.3707C76.6244 24.337 76.6935 24.3207 76.7629 24.3248Z" fill="#181818" stroke="#181818" stroke-width="0.170213"/>
<path d="M78.2676 24.9758C78.3601 24.9814 78.4468 25.0231 78.5098 25.0911C78.5728 25.1592 78.6072 25.2492 78.6055 25.3421C78.6037 25.4348 78.5664 25.5234 78.501 25.5891L78.498 25.5921L76.0361 27.8606C75.9698 27.922 75.8824 27.9563 75.792 27.9563C75.7199 27.9561 75.6493 27.9345 75.5898 27.8938C75.5303 27.8531 75.4843 27.795 75.458 27.7278C75.4317 27.6606 75.4263 27.5863 75.4424 27.5159C75.4586 27.4457 75.496 27.3823 75.5488 27.3333L78.0098 25.0637L78.0127 25.0618C78.0833 25.0015 78.1749 24.9704 78.2676 24.9758Z" fill="#181818" stroke="#181818" stroke-width="0.170213"/>
<path d="M79.5457 25.8187C79.5928 25.8205 79.6395 25.8312 79.6824 25.8509C79.7253 25.8706 79.7635 25.8993 79.7957 25.9339C79.8278 25.9685 79.8534 26.0088 79.8699 26.0531C79.8863 26.0973 79.8931 26.1446 79.8914 26.1917C79.8896 26.2389 79.8788 26.2855 79.8591 26.3284C79.8394 26.3714 79.8117 26.4106 79.7771 26.4427H79.7761L77.4812 28.5628C77.4145 28.6243 77.3268 28.6569 77.2361 28.6566V28.6575C77.1638 28.6575 77.0926 28.6358 77.033 28.595C76.9734 28.5543 76.9274 28.4962 76.9011 28.429C76.8749 28.3619 76.8694 28.2884 76.8855 28.2181C76.9016 28.1477 76.939 28.0836 76.9919 28.0345L79.2869 25.9144C79.3215 25.8823 79.3627 25.8576 79.407 25.8411C79.4513 25.8247 79.4984 25.8169 79.5457 25.8187Z" fill="#181818" stroke="#181818" stroke-width="0.170213"/>
<path d="M80.6331 26.8572C80.7256 26.8627 80.8122 26.9044 80.8752 26.9724C80.9383 27.0406 80.9727 27.1306 80.9709 27.2234C80.9692 27.3162 80.932 27.4048 80.8665 27.4705L80.8635 27.4734L78.6028 29.5584C78.5529 29.6045 78.4909 29.6357 78.425 29.6482L78.3586 29.6551C78.2864 29.655 78.2152 29.6323 78.1555 29.5916C78.0961 29.5509 78.05 29.4935 78.0237 29.4265C77.9973 29.3593 77.9919 29.285 78.0081 29.2146C78.0242 29.1443 78.0616 29.0801 78.1145 29.031L80.3762 26.9451L80.3782 26.9431C80.4488 26.8829 80.5404 26.8517 80.6331 26.8572Z" fill="#181818" stroke="#181818" stroke-width="0.170213"/>
<path d="M81.5315 28.063C81.6241 28.0685 81.7107 28.1102 81.7737 28.1783C81.8367 28.2464 81.8711 28.3364 81.8694 28.4292C81.8676 28.522 81.8304 28.6106 81.7649 28.6763L81.762 28.6792L81.761 28.6783L79.4358 30.8267C79.3696 30.8879 79.2828 30.9223 79.1926 30.9224C79.1204 30.9223 79.0491 30.9006 78.9895 30.8599C78.9299 30.8191 78.884 30.7611 78.8577 30.6939C78.8314 30.6268 78.8261 30.5532 78.842 30.4829C78.8582 30.4125 78.8955 30.3485 78.9485 30.2993L81.2747 28.1509L81.2766 28.149C81.3472 28.0887 81.4388 28.0576 81.5315 28.063Z" fill="#181818" stroke="#181818" stroke-width="0.170213"/>
<path d="M82.2317 29.4389C82.2801 29.4398 82.3281 29.4504 82.3723 29.4702C82.4164 29.49 82.4557 29.5187 82.4885 29.5542C82.5214 29.5897 82.5474 29.6316 82.5637 29.6772C82.58 29.7228 82.5871 29.7715 82.5842 29.8198C82.5814 29.868 82.5686 29.9152 82.5471 29.9585C82.526 30.0008 82.4959 30.0378 82.4602 30.0688L79.929 32.4077C79.8626 32.4692 79.7753 32.5042 79.6848 32.5044C79.6126 32.5043 79.5413 32.4816 79.4817 32.4409C79.4223 32.4002 79.3762 32.3428 79.3499 32.2758C79.3235 32.2086 79.3181 32.1344 79.3342 32.0639C79.3504 31.9936 79.3877 31.9294 79.4407 31.8803L81.97 29.5444C82.0041 29.5102 82.0453 29.4835 82.0901 29.4653C82.135 29.4471 82.1833 29.438 82.2317 29.4389Z" fill="#181818" stroke="#181818" stroke-width="0.170213"/>
<path d="M82.6917 31.0635C82.7842 31.069 82.8708 31.1107 82.9338 31.1787C82.9969 31.2468 83.0313 31.3368 83.0295 31.4297C83.0278 31.5224 82.9905 31.611 82.925 31.6767L82.9221 31.6797L82.9211 31.6787L79.8733 34.4941C79.8235 34.5402 79.7623 34.5714 79.6965 34.584L79.6292 34.5898C79.5571 34.5895 79.4864 34.5681 79.427 34.5273C79.3675 34.4866 79.3215 34.4285 79.2952 34.3613C79.269 34.2942 79.2636 34.2206 79.2795 34.1504C79.2955 34.0801 79.3323 34.0159 79.385 33.9668L82.4348 31.1514L82.4368 31.1494C82.5074 31.0891 82.599 31.058 82.6917 31.0635Z" fill="#181818" stroke="#181818" stroke-width="0.170213"/>
<path d="M82.8401 32.9495C82.8881 32.9508 82.936 32.962 82.9797 32.9818C83.0233 33.0016 83.0625 33.0297 83.095 33.0648C83.1276 33.1 83.1529 33.1417 83.1692 33.1868C83.1855 33.2319 83.1922 33.2797 83.1897 33.3275C83.1872 33.3754 83.1755 33.4229 83.1545 33.4661C83.1336 33.5092 83.1045 33.5479 83.0686 33.5794L83.0676 33.5784L80.2727 36.1624L80.2717 36.1615C80.2056 36.2227 80.1197 36.2572 80.0295 36.2572C79.9573 36.2571 79.8861 36.2354 79.8264 36.1947C79.7669 36.1539 79.7209 36.0958 79.6946 36.0286C79.6684 35.9615 79.6629 35.888 79.679 35.8177C79.6951 35.7473 79.7324 35.6832 79.7854 35.6341L82.5803 33.0511L82.636 33.0072C82.6562 32.9941 82.6779 32.9828 82.7004 32.974C82.7449 32.9566 82.7924 32.9483 82.8401 32.9495Z" fill="#181818" stroke="#181818" stroke-width="0.170213"/>
<path d="M82.4167 35.3743C82.4649 35.3753 82.5124 35.3859 82.5564 35.4056C82.6006 35.4254 82.6407 35.454 82.6736 35.4896C82.7065 35.5251 82.7315 35.567 82.7478 35.6126C82.7641 35.6582 82.7712 35.7068 82.7683 35.7552C82.7654 35.8035 82.7527 35.8506 82.7312 35.8939C82.7101 35.9363 82.6801 35.9732 82.6443 36.0042L82.6453 36.0052L81.5847 36.9866C81.5186 37.0485 81.4311 37.0815 81.3406 37.0814V37.0824C81.2683 37.0823 81.1971 37.0606 81.1375 37.0199C81.0779 36.9791 81.0319 36.921 81.0056 36.8538C80.9794 36.7867 80.974 36.7132 80.99 36.6429C81.0061 36.5725 81.0435 36.5084 81.0964 36.4593L82.155 35.4798L82.2107 35.4339C82.2308 35.4206 82.2527 35.4098 82.2751 35.4007C82.32 35.3826 82.3684 35.3734 82.4167 35.3743Z" fill="#181818" stroke="#181818" stroke-width="0.170213"/>
<line x1="32.1702" y1="8.68084" x2="82.2978" y2="8.68084" stroke="#F5F5F5" stroke-width="1.70213" stroke-linecap="round" stroke-linejoin="round"/>
<line x1="32.4255" y1="14.0426" x2="82.383" y2="14.0426" stroke="#F5F5F5" stroke-width="1.70213" stroke-linecap="round" stroke-linejoin="round"/>
<line x1="32.1702" y1="19.4894" x2="82.2978" y2="19.4894" stroke="#F5F5F5" stroke-width="1.70213" stroke-linecap="round" stroke-linejoin="round"/>
<line x1="32.1702" y1="24.9362" x2="60.6808" y2="24.9362" stroke="#F5F5F5" stroke-width="1.70213" stroke-linecap="round" stroke-linejoin="round"/>
<line x1="32.1702" y1="30.2979" x2="60.6808" y2="30.2979" stroke="#F5F5F5" stroke-width="1.70213" stroke-linecap="round" stroke-linejoin="round"/>
<line x1="32.1702" y1="35.7447" x2="60.6808" y2="35.7447" stroke="#F5F5F5" stroke-width="1.70213" stroke-linecap="round" stroke-linejoin="round"/>
<line x1="32.1702" y1="41.1915" x2="60.6808" y2="41.1915" stroke="#F5F5F5" stroke-width="1.70213" stroke-linecap="round" stroke-linejoin="round"/>
<line x1="62.383" y1="46.9787" x2="83.5745" y2="46.9787" stroke="#F5F5F5" stroke-width="1.70213" stroke-linecap="round" stroke-linejoin="round"/>
<line x1="62.383" y1="52.5106" x2="83.5745" y2="52.5106" stroke="#F5F5F5" stroke-width="1.70213" stroke-linecap="round" stroke-linejoin="round"/>
<line x1="62.383" y1="57.9574" x2="83.5745" y2="57.9574" stroke="#F5F5F5" stroke-width="1.70213" stroke-linecap="round" stroke-linejoin="round"/>
<line x1="32.1702" y1="46.9787" x2="53.3616" y2="46.9787" stroke="#F5F5F5" stroke-width="1.70213" stroke-linecap="round" stroke-linejoin="round"/>
<line x1="32.1702" y1="52.5106" x2="53.3616" y2="52.5106" stroke="#F5F5F5" stroke-width="1.70213" stroke-linecap="round" stroke-linejoin="round"/>
<line x1="32.1702" y1="57.9574" x2="53.3616" y2="57.9574" stroke="#F5F5F5" stroke-width="1.70213" stroke-linecap="round" stroke-linejoin="round"/>
<line x1="32.1702" y1="63.4042" x2="53.3616" y2="63.4042" stroke="#F5F5F5" stroke-width="1.70213" stroke-linecap="round" stroke-linejoin="round"/>
<line x1="32.1702" y1="68.8511" x2="53.3616" y2="68.8511" stroke="#F5F5F5" stroke-width="1.70213" stroke-linecap="round" stroke-linejoin="round"/>
<g filter="url(#filter1_dddddd_2_26995)">
<rect x="15.1489" y="56.9362" width="87.1489" height="3.65957" rx="1.82979" fill="#181818"/>
</g>
<defs>
<filter id="filter0_dddddd_2_26995" x="20.1702" y="0" width="77.0213" height="95.3191" filterUnits="userSpaceOnUse" color-interpolation-filters="sRGB">
<feFlood flood-opacity="0" result="BackgroundImageFix"/>
<feColorMatrix in="SourceAlpha" type="matrix" values="0 0 0 0 0 0 0 0 0 0 0 0 0 0 0 0 0 0 127 0" result="hardAlpha"/>
<feOffset dy="0.235511"/>
<feGaussianBlur stdDeviation="0.0942045"/>
<feColorMatrix type="matrix" values="0 0 0 0 0 0 0 0 0 0 0 0 0 0 0 0 0 0 0.0196802 0"/>
<feBlend mode="normal" in2="BackgroundImageFix" result="effect1_dropShadow_2_26995"/>
<feColorMatrix in="SourceAlpha" type="matrix" values="0 0 0 0 0 0 0 0 0 0 0 0 0 0 0 0 0 0 127 0" result="hardAlpha"/>
<feOffset dy="0.565966"/>
<feGaussianBlur stdDeviation="0.226386"/>
<feColorMatrix type="matrix" values="0 0 0 0 0 0 0 0 0 0 0 0 0 0 0 0 0 0 0.0282725 0"/>
<feBlend mode="normal" in2="effect1_dropShadow_2_26995" result="effect2_dropShadow_2_26995"/>
<feColorMatrix in="SourceAlpha" type="matrix" values="0 0 0 0 0 0 0 0 0 0 0 0 0 0 0 0 0 0 127 0" result="hardAlpha"/>
<feOffset dy="1.06566"/>
<feGaussianBlur stdDeviation="0.426266"/>
<feColorMatrix type="matrix" values="0 0 0 0 0 0 0 0 0 0 0 0 0 0 0 0 0 0 0.035 0"/>
<feBlend mode="normal" in2="effect2_dropShadow_2_26995" result="effect3_dropShadow_2_26995"/>
<feColorMatrix in="SourceAlpha" type="matrix" values="0 0 0 0 0 0 0 0 0 0 0 0 0 0 0 0 0 0 127 0" result="hardAlpha"/>
<feOffset dy="1.90096"/>
<feGaussianBlur stdDeviation="0.760385"/>
<feColorMatrix type="matrix" values="0 0 0 0 0 0 0 0 0 0 0 0 0 0 0 0 0 0 0.0417275 0"/>
<feBlend mode="normal" in2="effect3_dropShadow_2_26995" result="effect4_dropShadow_2_26995"/>
<feColorMatrix in="SourceAlpha" type="matrix" values="0 0 0 0 0 0 0 0 0 0 0 0 0 0 0 0 0 0 127 0" result="hardAlpha"/>
<feOffset dy="3.55554"/>
<feGaussianBlur stdDeviation="1.42222"/>
<feColorMatrix type="matrix" values="0 0 0 0 0 0 0 0 0 0 0 0 0 0 0 0 0 0 0.0503198 0"/>
<feBlend mode="normal" in2="effect4_dropShadow_2_26995" result="effect5_dropShadow_2_26995"/>
<feColorMatrix in="SourceAlpha" type="matrix" values="0 0 0 0 0 0 0 0 0 0 0 0 0 0 0 0 0 0 127 0" result="hardAlpha"/>
<feOffset dy="8.51064"/>
<feGaussianBlur stdDeviation="3.40425"/>
<feColorMatrix type="matrix" values="0 0 0 0 0 0 0 0 0 0 0 0 0 0 0 0 0 0 0.07 0"/>
<feBlend mode="normal" in2="effect5_dropShadow_2_26995" result="effect6_dropShadow_2_26995"/>
<feBlend mode="normal" in="SourceGraphic" in2="effect6_dropShadow_2_26995" result="shape"/>
</filter>
<filter id="filter1_dddddd_2_26995" x="-8.58307e-06" y="54.383" width="117.447" height="33.9574" filterUnits="userSpaceOnUse" color-interpolation-filters="sRGB">
<feFlood flood-opacity="0" result="BackgroundImageFix"/>
<feColorMatrix in="SourceAlpha" type="matrix" values="0 0 0 0 0 0 0 0 0 0 0 0 0 0 0 0 0 0 127 0" result="hardAlpha"/>
<feOffset dy="0.348557"/>
<feGaussianBlur stdDeviation="0.209605"/>
<feColorMatrix type="matrix" values="0 0 0 0 0.0941176 0 0 0 0 0.0941176 0 0 0 0 0.0941176 0 0 0 0.15463 0"/>
<feBlend mode="normal" in2="BackgroundImageFix" result="effect1_dropShadow_2_26995"/>
<feColorMatrix in="SourceAlpha" type="matrix" values="0 0 0 0 0 0 0 0 0 0 0 0 0 0 0 0 0 0 127 0" result="hardAlpha"/>
<feOffset dy="0.83763"/>
<feGaussianBlur stdDeviation="0.50371"/>
<feColorMatrix type="matrix" values="0 0 0 0 0.0941176 0 0 0 0 0.0941176 0 0 0 0 0.0941176 0 0 0 0.222141 0"/>
<feBlend mode="normal" in2="effect1_dropShadow_2_26995" result="effect2_dropShadow_2_26995"/>
<feColorMatrix in="SourceAlpha" type="matrix" values="0 0 0 0 0 0 0 0 0 0 0 0 0 0 0 0 0 0 127 0" result="hardAlpha"/>
<feOffset dy="1.57718"/>
<feGaussianBlur stdDeviation="0.948441"/>
<feColorMatrix type="matrix" values="0 0 0 0 0.0941176 0 0 0 0 0.0941176 0 0 0 0 0.0941176 0 0 0 0.275 0"/>
<feBlend mode="normal" in2="effect2_dropShadow_2_26995" result="effect3_dropShadow_2_26995"/>
<feColorMatrix in="SourceAlpha" type="matrix" values="0 0 0 0 0 0 0 0 0 0 0 0 0 0 0 0 0 0 127 0" result="hardAlpha"/>
<feOffset dy="2.81342"/>
<feGaussianBlur stdDeviation="1.69186"/>
<feColorMatrix type="matrix" values="0 0 0 0 0.0941176 0 0 0 0 0.0941176 0 0 0 0 0.0941176 0 0 0 0.327859 0"/>
<feBlend mode="normal" in2="effect3_dropShadow_2_26995" result="effect4_dropShadow_2_26995"/>
<feColorMatrix in="SourceAlpha" type="matrix" values="0 0 0 0 0 0 0 0 0 0 0 0 0 0 0 0 0 0 127 0" result="hardAlpha"/>
<feOffset dy="5.2622"/>
<feGaussianBlur stdDeviation="3.16443"/>
<feColorMatrix type="matrix" values="0 0 0 0 0.0941176 0 0 0 0 0.0941176 0 0 0 0 0.0941176 0 0 0 0.39537 0"/>
<feBlend mode="normal" in2="effect4_dropShadow_2_26995" result="effect5_dropShadow_2_26995"/>
<feColorMatrix in="SourceAlpha" type="matrix" values="0 0 0 0 0 0 0 0 0 0 0 0 0 0 0 0 0 0 127 0" result="hardAlpha"/>
<feOffset dy="12.5957"/>
<feGaussianBlur stdDeviation="7.57447"/>
<feColorMatrix type="matrix" values="0 0 0 0 0.0941176 0 0 0 0 0.0941176 0 0 0 0 0.0941176 0 0 0 0.55 0"/>
<feBlend mode="normal" in2="effect5_dropShadow_2_26995" result="effect6_dropShadow_2_26995"/>
<feBlend mode="normal" in="SourceGraphic" in2="effect6_dropShadow_2_26995" result="shape"/>
</filter>
</defs>
</svg>
