<svg width="16" height="16" viewBox="0 0 16 16" fill="none" xmlns="http://www.w3.org/2000/svg">
<path d="M3.36709 5.82278C2.80382 5.07176 3.3397 4 4.27848 4H11.7215C12.6603 4 13.1962 5.07176 12.6329 5.82278C12.2221 6.37056 12 7.0368 12 7.72152V12C12 13.4728 10.8061 14.6667 9.33333 14.6667H6.66667C5.19391 14.6667 4 13.4728 4 12V7.72152C4 7.0368 3.77792 6.37056 3.36709 5.82278Z" stroke="#D92D20"/>
<path d="M9.33203 11.3335L9.33203 7.3335" stroke="#D92D20" stroke-linecap="round" stroke-linejoin="round"/>
<path d="M6.66797 11.3335L6.66797 7.3335" stroke="#D92D20" stroke-linecap="round" stroke-linejoin="round"/>
<path d="M10.6654 4L10.3026 2.9117C10.1211 2.36724 9.61159 2 9.03769 2H6.95971C6.3858 2 5.87628 2.36724 5.6948 2.9117L5.33203 4" stroke="#D92D20" stroke-linecap="round"/>
</svg>
